<svg width="160" height="40" viewBox="0 0 160 40" fill="none" xmlns="http://www.w3.org/2000/svg">
<g opacity="0.3">
<path fill-rule="evenodd" clip-rule="evenodd" d="M63.8031 13.9304C62.5643 13.1876 61.1604 12.6099 59.3856 12.6099C55.8352 12.6099 52.9858 15.2517 52.9858 19.7934C52.9858 25.0361 55.876 27.472 59.5924 27.472C61.2846 27.472 62.6476 27.101 64.2574 26.3583L65.0418 28.8341C63.5971 29.6186 61.3672 29.9904 59.5498 29.9904C53.6877 29.9904 49.9305 25.8605 49.9305 19.8334C49.9305 14.1354 54.142 10.0064 59.5915 10.0064C61.6147 10.0064 63.307 10.5433 65.0827 11.4936L63.8031 13.9304ZM76.2309 22.6827C76.2309 25.9865 74.3727 27.7613 72.1844 27.7613C69.9961 27.7613 68.1388 25.9865 68.1388 22.6827C68.1388 19.6691 69.5018 17.6051 72.1844 17.6051C74.8679 17.6051 76.2309 19.6691 76.2309 22.6827ZM78.9969 22.6827C78.9969 19.8342 77.6348 15.3759 72.1844 15.3759C66.7341 15.3759 65.3728 19.8351 65.3728 22.6827C65.3728 27.1844 68.1388 29.9913 72.1844 29.9913C76.2309 29.9913 78.9969 27.1844 78.9969 22.6827ZM90.4336 29.6194V20.7437C90.4336 18.2245 89.3599 17.6051 87.9143 17.6051C86.4288 17.6051 83.8279 18.8847 83.8279 21.8983V29.6186H81.1027V15.7469H83.8279V17.811C84.8182 16.4896 86.2637 15.3759 88.6988 15.3759C91.6316 15.3759 93.1588 16.9448 93.1588 20.4961V29.6194H90.4336ZM100.259 29.9913C98.2764 29.9913 96.6658 29.4544 94.891 28.4223L96.0065 26.1941C96.9968 26.9768 98.7733 27.7613 100.259 27.7613C101.744 27.7613 102.695 27.0185 102.695 25.9448C102.695 23.5089 95.4279 24.1283 95.4279 19.6283C95.4279 17.2341 97.2444 15.3759 100.589 15.3759C102.24 15.3759 103.768 15.8303 105.131 16.6147L103.933 18.638C102.653 17.9769 101.497 17.6468 100.423 17.6468C98.7316 17.6468 98.0697 18.5546 98.0697 19.2148C98.0697 21.6507 105.337 20.9079 105.337 25.4913C105.337 28.1339 103.273 29.9913 100.259 29.9913ZM108.847 13.2702C108.635 13.2734 108.424 13.2339 108.227 13.1541C108.03 13.0743 107.851 12.9558 107.701 12.8056C107.551 12.6554 107.432 12.4765 107.352 12.2797C107.273 12.0828 107.233 11.872 107.236 11.6596C107.236 10.7517 107.937 10.0498 108.847 10.0498C109.754 10.0498 110.458 10.7517 110.458 11.6596C110.461 11.8719 110.421 12.0827 110.341 12.2796C110.261 12.4764 110.143 12.6551 109.993 12.8053C109.843 12.9555 109.664 13.074 109.467 13.1539C109.27 13.2337 109.059 13.2733 108.847 13.2702ZM107.485 15.7469H110.21V29.6186H107.485V15.7469ZM121.398 20.3302C121.398 22.6836 120.16 23.6756 118.3 23.6756C116.607 23.6756 115.329 22.6836 115.329 20.537C115.329 18.9689 116.03 17.3583 118.342 17.3583C120.448 17.3566 121.398 18.8439 121.398 20.3302ZM125.609 31.2292C125.609 29.4961 124.493 27.9689 122.183 27.9689C121.234 27.9689 118.507 28.0505 117.723 28.0505C115.865 28.0505 115.494 27.9272 115.494 27.472C115.494 27.141 116.031 26.3174 117.063 25.4913C117.526 25.5756 117.996 25.6169 118.467 25.6146C121.687 25.6146 123.916 23.3864 123.916 20.6612C123.916 19.9176 123.585 18.8022 123.05 17.8535H125.609V15.6652C124.66 15.7477 124.082 15.7477 122.594 15.7477C120.324 15.7477 120.16 15.3759 118.219 15.3759C115.494 15.3759 112.727 17.0274 112.727 20.4961C112.727 22.9303 113.883 24.2933 115.41 24.9961C113.222 26.3174 112.562 27.6379 112.562 28.464C112.562 29.2902 113.263 29.827 114.461 30.2388C113.263 31.1067 112.231 32.5522 112.231 33.8318C112.231 36.1018 114.79 37.2581 117.846 37.2581C121.234 37.2581 125.609 35.2357 125.609 31.2292ZM123.173 31.6427C123.173 32.9223 121.44 35.0689 118.22 35.0689C115.7 35.0689 114.916 33.8727 114.916 33.0048C114.916 32.0145 115.659 31.1058 116.443 30.4439C116.938 30.4775 117.434 30.4914 117.93 30.4856C118.384 30.4856 120.861 30.4439 121.398 30.4439C122.72 30.4447 123.173 30.8174 123.173 31.6427ZM136.84 29.6194V20.7437C136.84 18.2245 135.766 17.6051 134.322 17.6051C132.835 17.6051 130.234 18.8847 130.234 21.8983V29.6186H127.509V15.7469H130.234V17.811C131.224 16.4896 132.67 15.3759 135.105 15.3759C138.038 15.3759 139.565 16.9448 139.565 20.4961V29.6194H136.84ZM143.776 13.2702C143.563 13.2734 143.352 13.2339 143.155 13.1541C142.959 13.0743 142.78 12.9558 142.63 12.8056C142.479 12.6554 142.361 12.4765 142.281 12.2797C142.201 12.0828 142.162 11.872 142.165 11.6596C142.165 10.7517 142.866 10.0498 143.776 10.0498C144.685 10.0498 145.386 10.7517 145.386 11.6596C145.389 11.872 145.35 12.0828 145.27 12.2797C145.19 12.4765 145.072 12.6554 144.922 12.8056C144.771 12.9558 144.593 13.0743 144.396 13.1541C144.199 13.2339 143.988 13.2734 143.776 13.2702ZM142.413 15.7469H145.136V29.6186H142.413V15.7469ZM155.418 25.9448C154.386 27.0185 152.942 27.7196 151.91 27.7196C150.298 27.7196 149.886 26.6458 149.886 26.109C149.886 24.4592 151.166 23.8807 155.418 22.8486V25.9448ZM159.589 27.7613H159.3C158.557 27.7613 158.184 27.472 158.184 26.3174V20.1652C158.184 17.8535 157.358 15.3768 153.271 15.3768C151.412 15.3768 149.679 15.9128 147.697 17.069L148.646 19.1331C149.804 18.3895 151.454 17.6468 152.983 17.6468C154.633 17.6468 155.417 18.2245 155.417 20.0826V20.7029C149.596 22.0242 147.284 23.0146 147.284 26.2349C147.284 28.1756 148.522 29.9921 151.453 29.9921C153.394 29.9921 154.84 28.7959 155.664 27.8863C155.955 29.4552 157.441 29.9921 158.968 29.9921L159.589 27.7613ZM24.7786 36.3511C14.8513 36.3511 6.83237 28.9014 6.83237 18.6065C6.83237 8.77188 14.9449 0.860997 24.7786 0.860997C25.2862 0.869811 25.7914 0.933135 26.2854 1.04988C24.5243 0.364121 22.4261 0.0493164 20.4778 0.0493164C9.45884 0.0493164 0.412109 8.98204 0.412109 20.001C0.412109 31.5508 9.98124 39.9526 20.8964 39.9526C28.8872 39.9526 34.2423 36.1724 37.0474 30.9671C34.8302 33.6591 30.5208 36.3511 24.7786 36.3511Z" fill="white"/>
<path fill-rule="evenodd" clip-rule="evenodd" d="M20.3859 33.1035C16.5683 30.8948 13.8891 26.4033 13.8891 22.0412C13.8891 14.9862 19.6074 9.26788 26.6624 9.26788C33.7165 9.26788 39.434 14.9862 39.434 22.0412C39.434 23.1481 39.2928 24.2227 39.0282 25.2488C39.896 23.3395 40.1819 20.8398 40.1819 18.6064C40.1819 10.2429 33.1431 3.46191 24.7787 3.46191C16.4143 3.46191 9.63501 10.2429 9.63501 18.6064C9.63501 25.4411 14.1648 31.2207 20.3859 33.1035Z" fill="white"/>
<path fill-rule="evenodd" clip-rule="evenodd" d="M24.8842 33.7503C31.0416 32.8475 33.1473 28.4412 33.1473 25.003C33.1473 20.1508 29.2132 16.2166 24.3618 16.2166C20.5672 16.2166 17.6642 18.593 16.6993 22.0422C16.6993 16.5399 21.1593 12.0791 26.6616 12.0791C32.1629 12.0791 36.6229 16.5399 36.6229 22.0422C36.6238 29.3022 31.9596 33.7503 24.8842 33.7503Z" fill="white"/>
</g>
</svg>
