<svg width="151" height="32" viewBox="0 0 151 32" fill="none" xmlns="http://www.w3.org/2000/svg">
<path fill-rule="evenodd" clip-rule="evenodd" d="M6.41614 22.3113H24.8271V12.9923H21.6736V19.0927H9.56966V10.1123H18.6904V6.89282H6.41614V22.3113Z" fill="#5D5C60"/>
<path fill-rule="evenodd" clip-rule="evenodd" d="M12.5537 12.9924V16.2119H18.6904V12.9924H12.5537Z" fill="#5D5C60"/>
<path fill-rule="evenodd" clip-rule="evenodd" d="M3.34734 25.7851C3.34734 25.7851 3.43294 6.55324 3.43294 4.0127H21.6735V10.1122H24.8271V0.877441H0.279419V30.1055C0.279419 30.1055 14.5995 23.0735 27.2992 31.8846L29.0044 29.3441C17.5818 21.2103 3.34734 25.7851 3.34734 25.7851Z" fill="#5D5C60"/>
<path fill-rule="evenodd" clip-rule="evenodd" d="M80.0599 22.3964H77.0775C77.0775 22.3964 76.9072 22.3964 76.9072 22.3113C76.9072 21.6341 76.9928 18.1602 76.9928 16.8049V13.7547C76.9928 13.1617 76.9928 12.4836 76.8225 11.8063C76.4818 10.5352 75.7139 9.68862 74.2647 9.68862C72.5604 9.68862 71.2815 10.6203 70.3442 11.2984C70.3442 15.7881 70.429 21.3805 70.429 22.3113C70.429 22.3964 70.3442 22.3964 70.3442 22.3964H67.2754C67.2754 22.3964 67.1898 22.3964 67.1898 22.3113C67.2754 8.84121 67.1042 0.200315 67.1042 0.200315C67.1042 0.200315 67.1042 0.115234 67.1898 0.115234H70.2586C70.2586 0.115234 70.3442 0.115233 70.3442 0.200315C70.2586 5.45241 70.3442 9.01052 70.3442 9.01052C70.3442 9.01052 72.7308 7.23146 75.458 7.23146C76.1402 7.23146 76.8225 7.31655 77.4191 7.57009C78.6963 8.07803 79.4641 9.17983 79.72 10.2816C79.8904 10.8747 79.8904 11.2133 79.976 13.1617C79.976 13.1617 80.0616 20.8709 80.1463 22.3105C80.1455 22.3964 80.0599 22.3964 80.0599 22.3964ZM91.7383 14.6021V19.0918C91.3389 19.498 90.8612 19.8199 90.3338 20.0383C89.8064 20.2567 89.2401 20.3671 88.6687 20.363C85.9415 20.363 85.9415 17.905 85.9415 17.7356C85.9415 15.1943 88.5831 15.0249 91.4824 14.6012H91.7383V14.6021ZM94.7207 13.6704C94.7207 12.4844 94.7207 10.8747 94.5503 10.1123C93.8681 7.57094 91.568 7.14723 89.4357 7.14723C87.8153 7.14723 85.9415 7.65517 84.3211 8.16396C84.2355 8.16396 84.2355 8.33327 84.2355 8.33327V10.536C84.2355 10.7053 84.3211 10.6211 84.3211 10.6211H84.4914C85.6855 10.1123 86.8788 9.52016 88.8382 9.43508C90.2874 9.35 91.2256 9.94387 91.4815 10.4518C91.7375 10.9597 91.7375 11.7221 91.7375 12.4844L91.2256 12.5695C86.111 13.1625 82.871 14.0942 82.871 17.9067C82.871 20.7875 84.9177 22.6508 87.7297 22.6508C89.9467 22.6508 91.2256 21.6349 91.7375 21.2112V22.3122C91.7375 22.3973 91.9061 22.3973 91.9061 22.3973C91.9061 22.3973 93.3553 22.4832 94.7198 22.3973C94.7198 22.3973 94.8054 22.4832 94.8054 22.3122C94.7207 20.5323 94.7207 13.6704 94.7207 13.6704ZM131.287 14.6021V19.0918C130.946 19.3462 129.922 20.363 128.133 20.363C125.49 20.363 125.49 17.905 125.49 17.7356C125.49 15.1943 128.047 15.0249 131.031 14.6012H131.287V14.6021ZM134.271 13.6704C134.271 12.4844 134.271 10.8747 134.015 10.1123C133.418 7.57094 131.115 7.14723 128.986 7.14723C127.28 7.14723 125.49 7.65517 123.871 8.16396C123.701 8.16396 123.785 8.33327 123.785 8.33327V10.536C123.785 10.7053 123.871 10.6211 123.871 10.6211H123.957C125.151 10.1123 126.428 9.52016 128.303 9.43508C129.751 9.35 130.689 9.94387 131.031 10.4518C131.287 10.9597 131.287 11.7221 131.287 12.4844L130.775 12.5695C125.66 13.1625 122.422 14.0942 122.422 17.9067C122.422 20.7875 124.383 22.6508 127.281 22.6508C129.498 22.6508 130.775 21.6349 131.287 21.2112V22.3122C131.287 22.3973 131.372 22.3973 131.372 22.3973C131.372 22.3973 132.907 22.4832 134.271 22.3973C134.271 22.3973 134.355 22.4832 134.355 22.3122C134.271 20.5323 134.271 13.6704 134.271 13.6704ZM98.1293 7.74025H101.113C101.113 7.74025 101.284 7.74026 101.199 7.90957V9.01052C102.22 8.24819 103.841 7.14723 106.058 7.14723C108.529 7.14723 109.552 8.41835 109.978 9.01052C110.66 8.50259 112.534 7.14723 115.263 7.14723C116.284 7.14723 117.478 7.48586 118.331 8.33327C119.695 9.60439 119.695 10.7053 119.695 13.1625C119.695 13.1625 119.781 19.8559 119.866 22.3113C119.866 22.3964 119.78 22.3964 119.78 22.3964H116.796C116.711 22.3964 116.626 22.3964 116.626 22.3113C116.711 19.9401 116.711 12.5686 116.54 11.8914C116.284 10.7054 115.604 9.68862 113.984 9.68862C112.023 9.7737 110.576 11.044 110.576 11.044C110.576 11.044 110.661 15.1951 110.83 22.3113C110.83 22.4815 110.746 22.3964 110.746 22.3964H107.847C107.761 22.3964 107.761 22.3964 107.761 22.3113C107.761 15.5346 107.675 12.0607 107.505 11.637C107.335 10.7896 106.482 9.68862 104.778 9.68862C103.755 9.68862 102.646 10.1123 101.284 11.2133C101.284 11.2133 101.198 17.1443 101.452 22.3113C101.452 22.3964 101.368 22.3964 101.368 22.3964H98.2988C98.2132 22.3964 98.2132 22.3113 98.2132 22.3113C98.2132 22.3113 98.2988 14.4328 98.0428 7.90957C97.9589 7.74026 98.1293 7.74025 98.1293 7.74025ZM150.55 22.3964H147.653C147.567 22.3964 147.482 22.3113 147.482 22.3113C147.482 15.3644 147.482 12.4002 147.397 11.8063C146.8 9.68862 145.18 9.68862 144.839 9.68862C143.05 9.68862 141.771 10.7053 141.004 11.2984C141.004 16.2118 141.09 18.8383 141.174 22.3113C141.174 22.3964 141.089 22.3964 141.089 22.3964H138.021C137.935 22.3964 137.935 22.3964 137.935 22.3113C137.85 13.8398 137.85 10.6203 137.679 7.90957C137.679 7.82534 137.765 7.74025 137.765 7.74025H140.918C140.918 7.74025 141.004 7.74026 141.004 7.90957V9.01052C141.771 8.50259 143.562 7.23146 146.033 7.23146C146.8 7.23146 147.653 7.40077 148.42 7.82448C149.187 8.24819 149.783 8.84036 150.124 9.68777C150.465 10.5352 150.465 11.3826 150.55 13.1617C150.55 13.1617 150.636 16.4654 150.72 22.3105C150.72 22.4815 150.55 22.3964 150.55 22.3964ZM44.0906 13.1617C41.4481 13.1617 40.4251 13.2467 36.9309 13.1617C37.2716 10.3659 39.1471 9.26406 40.6811 9.26406C41.96 9.26406 43.238 9.94217 43.8355 11.4668C44.0906 12.1458 44.0906 12.7379 44.0906 13.1617ZM46.4771 18.669C46.4771 18.669 46.4771 18.4997 46.3067 18.5839C45.6629 19.0872 44.9441 19.4876 44.1762 19.7708C43.4092 20.1094 42.5566 20.1937 41.704 20.1937C40.8514 20.1937 39.2319 20.2787 38.0386 18.8383C37.1013 17.7365 37.0157 16.2969 36.9309 15.3644C41.6193 15.2793 42.3006 15.3644 46.733 15.2793C46.733 15.2793 46.9034 15.2793 46.9034 15.1943C46.989 13.7538 47.0737 11.0431 45.5398 9.17898C44.6872 8.16226 43.0676 7.23061 40.8514 7.23061C37.1013 7.23061 33.9478 9.772 33.9478 15.11C33.9478 20.0235 36.8453 22.6491 41.5337 22.6491C44.0906 22.6491 45.6245 21.8026 46.1364 21.5482L46.3923 21.3788C46.3923 21.3788 46.4779 21.3788 46.4779 21.2095V18.669H46.4771ZM62.7574 5.0287V2.31715C62.7574 2.31715 62.7574 2.23207 62.5871 2.14784C62.2464 1.89344 60.3709 0.876713 56.9614 0.792482C53.0401 0.792482 49.3755 2.99525 49.3755 6.55336C49.3755 10.0272 51.1654 11.2975 54.7452 12.4836L56.1936 12.9923C57.2165 13.331 60.626 14.0091 60.626 16.8049C60.626 19.0918 57.8132 20.0243 55.4266 20.0243C53.3808 20.0243 51.6765 19.0918 49.8866 17.9058C49.6306 17.7365 49.6306 17.9909 49.6306 17.9909V21.0411C49.6306 21.0411 49.6306 21.1262 49.801 21.2104C50.8239 21.7192 53.296 22.65 55.6826 22.65C57.3021 22.65 59.859 22.4815 62.0752 20.7867C63.5244 19.6857 64.2914 17.9058 64.2914 16.2118C64.2914 12.5686 61.4786 11.1291 59.092 10.3659L57.5581 9.94217C55.8538 9.34915 52.9553 8.84036 52.9553 6.3832C52.9553 4.85853 53.9783 4.01113 55.6834 3.50319C56.2742 3.39686 56.873 3.34022 57.4733 3.33387C60.0302 3.33387 62.0761 4.94362 62.588 5.11293C62.7574 5.19886 62.7574 5.0287 62.7574 5.0287Z" fill="#5D5C60"/>
</svg>
