<svg width="150" height="30" viewBox="0 0 150 30" fill="none" xmlns="http://www.w3.org/2000/svg">
<path opacity="0.5" fill-rule="evenodd" clip-rule="evenodd" d="M12.4956 11.706C12.5943 14.1811 14.5988 14.9128 16.7275 15.9865L21.185 18.3075C22.9496 19.4221 23.8463 20.8455 23.8463 22.9504C23.8463 26.5417 20.8225 29.2192 17.3725 29.5885H34.9546L18.0335 0.425049C17.0185 2.28578 13.3617 8.51632 13.0937 8.97831C12.5943 9.88953 12.4581 10.7957 12.4956 11.706Z" fill="#67666B"/>
<path fill-rule="evenodd" clip-rule="evenodd" d="M17.974 18.5263L13.3371 16.0904C11.6746 15.083 10.7897 13.5269 10.8144 11.6798C10.8289 10.5916 11.1079 9.36213 11.4057 8.61597L0.235352 27.9508H16.6357C18.128 27.9508 19.5276 27.4403 20.5775 26.381C21.5891 25.3617 22.1405 24.3059 22.1447 22.8272C22.1515 20.5121 20.0458 19.5081 17.974 18.5263ZM49.1973 25.8365L48.3541 27.961H44.9807L49.684 15.7331H53.1553L57.7608 27.961H54.372L53.5773 25.8365H49.1973ZM51.4196 19.5115H51.3864L50.0736 23.404H52.7171L51.4196 19.5115ZM65.4641 18.8794C64.8804 18.3936 64.1342 18.0694 63.3557 18.0694C62.7721 18.0694 61.9936 18.4089 61.9936 19.0895C61.9936 19.8034 62.8529 20.079 63.4051 20.2577L64.2159 20.501C65.9184 21.0039 67.2321 21.8649 67.2321 23.8422C67.2321 25.0589 66.9402 26.307 65.9677 27.1348C65.0106 27.9448 63.7292 28.2868 62.4964 28.2868C60.9556 28.2868 59.4471 27.7679 58.1989 26.8915L59.5611 24.3288C60.3558 25.0257 61.2959 25.594 62.3824 25.594C63.1294 25.594 63.9241 25.2205 63.9241 24.3612C63.9241 23.4695 62.6751 23.1607 61.9936 22.9658C59.9984 22.3983 58.6856 21.8793 58.6856 19.5107C58.6856 17.0297 60.4527 15.408 62.9022 15.408C64.1342 15.408 65.6427 15.7977 66.7292 16.4137L65.4641 18.8794ZM77.4818 18.425V20.4687H81.0663V23.1607H77.4818V25.269H81.2603V27.961H74.3032V15.7331H81.2603V18.425H77.4818Z" fill="#5D5C60"/>
<path d="M83.1584 27.961H86.1099V14.5002H83.1584V27.961Z" fill="#67666B"/>
<path fill-rule="evenodd" clip-rule="evenodd" d="M96.604 24.2964H90.3921C90.3921 25.496 91.0235 26.1452 92.2401 26.1452C92.8731 26.1452 93.3266 25.9342 93.6508 25.3829H96.4891C96.0186 27.3448 94.1545 28.2365 92.2563 28.2365C89.4996 28.2365 87.439 26.6804 87.439 23.8106C87.439 21.036 89.3363 19.3659 92.0453 19.3659C94.9321 19.3659 96.6031 21.1492 96.6031 23.9892V24.2964H96.604ZM93.8618 22.593C93.7171 21.7984 92.9863 21.2794 92.1916 21.2794C91.3306 21.2794 90.6176 21.7337 90.4381 22.593H93.8618ZM102.036 23.9067L104.014 19.6415H107.322L102.977 27.9608H101.095L96.7333 19.6415H100.04L102.036 23.9067ZM117.151 27.9608H114.198V27.0368H114.167C113.648 27.8638 112.626 28.2357 111.654 28.2357C109.188 28.2357 107.452 26.1767 107.452 23.7927C107.452 21.4078 109.155 19.365 111.621 19.365C112.578 19.365 113.584 19.7215 114.198 20.4515V19.6407H117.151V27.9608ZM110.501 23.8106C110.501 24.8639 111.199 25.6747 112.399 25.6747C113.598 25.6747 114.296 24.8639 114.296 23.8106C114.296 22.7887 113.598 21.9294 112.399 21.9294C111.199 21.9294 110.501 22.7879 110.501 23.8106ZM122.341 27.9608H119.39V22.074H118.433V19.6415H119.39V17.1436H122.341V19.6415H124.01V22.074H122.341V27.9608ZM134.359 23.8106C134.359 26.6319 132.023 28.2365 129.347 28.2365C126.686 28.2365 124.335 26.6489 124.335 23.8106C124.335 20.9714 126.671 19.3659 129.347 19.3659C132.023 19.3659 134.359 20.9714 134.359 23.8106ZM127.449 23.8106C127.449 24.8639 128.146 25.6747 129.346 25.6747C130.546 25.6747 131.243 24.8639 131.243 23.8106C131.243 22.7887 130.546 21.9294 129.346 21.9294C128.146 21.9294 127.449 22.7879 127.449 23.8106ZM138.639 21.0037H138.673C139.239 19.9819 140.212 19.5284 141.365 19.5284H141.931V22.3667C141.525 22.1387 141.137 22.0911 140.683 22.0911C139.044 22.0911 138.639 23.1775 138.639 24.6052V27.9617H135.688V19.6424H138.639V21.0037ZM148.534 21.7822C148.041 21.5288 147.497 21.3901 146.943 21.3764C146.603 21.3764 146.019 21.5227 146.019 21.9439C146.019 22.5122 146.943 22.593 147.348 22.673C148.726 22.9487 149.765 23.5987 149.765 25.1387C149.765 27.3278 147.77 28.2357 145.84 28.2357C144.654 28.2318 143.493 27.9009 142.483 27.2793L143.554 25.2195C144.154 25.6415 145.161 26.0627 145.888 26.0627C146.262 26.0627 146.814 25.8848 146.814 25.4305C146.814 24.7822 145.888 24.749 144.964 24.5057C144.04 24.2623 143.116 23.8097 143.116 22.3165C143.116 20.2737 144.964 19.365 146.781 19.365C147.721 19.365 148.662 19.5105 149.523 19.9002L148.534 21.7822Z" fill="#5D5C60"/>
</svg>
