<svg width="160" height="25" viewBox="0 0 160 25" fill="none" xmlns="http://www.w3.org/2000/svg">
<path fill-rule="evenodd" clip-rule="evenodd" d="M17.9338 23.2239H17.4063L16.1922 21.5674C14.1868 22.9568 12.4452 23.5983 10.3862 23.5983C4.84486 23.5983 0.411255 18.3607 0.411255 11.84C0.411255 5.58651 5.16136 0.348877 10.7027 0.348877C12.6026 0.348877 14.5025 0.990394 16.1922 2.27342L17.4063 0.669634H17.9338V6.60238H17.4063C16.5087 3.02129 14.1868 1.09675 10.7563 1.09675C8.53996 1.09675 6.74558 2.11262 5.84797 3.87637C5.16136 5.15855 4.84486 8.09897 4.84486 12.9086C4.84486 17.6664 5.10861 19.6437 6.00537 20.8204C6.95574 22.0498 8.64461 22.7977 10.4917 22.7977C13.7112 22.7977 15.9812 20.8204 17.4055 16.8649H17.933V23.2239H17.9338ZM32.3952 16.5969C32.3952 20.4988 29.2812 23.5983 25.3232 23.5983C21.3652 23.5983 18.1976 20.4988 18.1976 16.5969C18.1976 12.6951 21.4171 9.5947 25.3232 9.5947C29.2812 9.5947 32.3952 12.6951 32.3952 16.5969ZM22.3147 11.8928C21.9982 12.5343 21.9454 13.0694 21.9454 16.5969C21.9454 20.5515 21.9982 20.9259 22.5793 21.6754C23.1595 22.4761 24.0035 22.7968 25.324 22.7968C26.801 22.7968 27.8041 22.3153 28.3325 21.2994C28.649 20.6579 28.649 20.1244 28.649 16.5969C28.649 12.6423 28.649 12.268 28.0679 11.5193C27.4876 10.7178 26.6436 10.397 25.324 10.397C23.7917 10.397 22.7894 10.8777 22.3147 11.8928Z" fill="#5D5C60"/>
<path fill-rule="evenodd" clip-rule="evenodd" d="M34.6114 10.6107H32.2368V9.96921H37.7782V13.1759C38.7285 10.7179 39.9418 9.5957 41.5779 9.5957C42.8448 9.5957 43.7416 10.3972 43.7416 11.5738C43.7416 12.588 43.0549 13.2848 41.9999 13.2848C40.9968 13.2848 40.5221 12.6969 40.4693 11.4666C40.4166 11.1459 40.3111 10.9859 40.0992 10.9859C39.8355 10.9859 39.4662 11.3603 39.1497 11.841C38.0947 13.5529 37.7773 15.4748 37.7773 19.432V22.5843H40.0465V23.2258H32.2368V22.5843H34.6123V10.6107H34.6114Z" fill="#5D5C60"/>
<path fill-rule="evenodd" clip-rule="evenodd" d="M45.5896 10.6106H43.2141V9.96908H48.7563V11.6801C49.9168 10.2362 51.2892 9.59473 53.2418 9.59473C54.5614 9.59473 55.9866 10.129 56.7251 10.9305C57.5699 11.7856 57.7282 12.5334 57.7282 15.0459V22.5816H60.0501V23.2231H52.4497V22.5816H54.5606V17.344C54.5606 13.2294 54.4015 12.0527 53.874 11.4112C53.452 10.8769 52.8709 10.6098 52.1324 10.6098C51.2875 10.6098 50.1797 11.1977 49.5986 11.9991C48.9656 12.907 48.7546 14.4044 48.7546 18.5206V22.5816H50.8655V23.2231H43.2124V22.5816H45.5879V10.6106H45.5896ZM63.0586 15.4739V16.5442C63.0586 19.9109 63.1113 20.6051 63.5333 21.3003C64.1144 22.2625 65.1167 22.7977 66.3835 22.7977C68.6527 22.7977 70.3943 21.3003 71.0809 18.7895H71.9258C71.3447 21.6763 69.0228 23.5983 66.067 23.5983C62.5838 23.5983 59.4179 20.2316 59.4179 16.5969C59.4179 12.8551 62.4791 9.59473 66.0151 9.59473C69.4984 9.59473 71.9258 11.8928 72.1368 15.4739H63.0586ZM68.4944 14.8324C68.4944 12.587 68.4417 12.3216 68.2307 11.6801C67.9142 10.8778 67.0693 10.397 65.9615 10.397C63.8507 10.397 63.0594 11.4121 63.0594 14.0317V14.8324H68.4944Z" fill="#5D5C60"/>
<path fill-rule="evenodd" clip-rule="evenodd" d="M74.0366 10.6107H71.7147V9.96921H77.2033V13.1759C78.2065 10.7179 79.367 9.5957 81.0567 9.5957C82.27 9.5957 83.2203 10.3972 83.2203 11.5738C83.2203 12.588 82.481 13.2848 81.4259 13.2848C80.4756 13.2848 80.0008 12.6969 79.8953 11.4666C79.8953 11.1459 79.7898 10.9859 79.5788 10.9859C79.3151 10.9859 78.945 11.3603 78.6285 11.841C77.5734 13.5529 77.2033 15.4748 77.2033 19.432V22.5843H79.5252V23.2258H71.7139V22.5843H74.0357V10.6107H74.0366Z" fill="#5D5C60"/>
<path fill-rule="evenodd" clip-rule="evenodd" d="M96.5713 6.28089H96.0447C95.6227 3.07416 93.5101 1.09601 90.4497 1.09601C87.8105 1.09601 85.8587 2.80616 85.8587 5.21141C85.8587 7.29592 86.7027 7.88383 91.4009 9.05965C94.2512 9.80752 94.9905 10.1291 95.9392 10.9842C97.2588 12.16 97.8918 13.8166 97.8918 15.9555C97.8918 20.3372 94.9905 23.5976 90.9789 23.5976C88.9736 23.5976 87.4429 23.0113 85.6477 21.6203L84.3817 23.2241H83.6423V16.2763H84.1707C84.8573 20.5516 87.2319 22.7969 90.9789 22.7969C93.9338 22.7969 96.0455 20.8196 96.0455 18.0392C96.0455 16.4907 95.5172 15.314 94.3558 14.5661C93.7228 14.0846 93.0362 13.8702 90.4506 13.2304C87.4429 12.428 86.4926 12.0537 85.5414 11.145C84.4863 10.13 84.0107 8.79335 84.0107 7.08321C84.0107 3.28857 86.861 0.348145 90.4497 0.348145C91.9803 0.348145 93.3527 0.775257 94.8833 1.73753L96.0966 0.348145H96.5722V6.28089H96.5713ZM102.958 9.96918H106.441V10.6107H102.958V20.2317C102.958 21.9419 103.38 22.5298 104.647 22.5298C105.596 22.5298 106.178 21.9419 106.44 20.7133H107.127C106.811 22.5825 105.543 23.5984 103.486 23.5984C102.22 23.5984 101.163 23.1713 100.477 22.3707C99.8436 21.6764 99.7917 21.3004 99.7917 19.1631V10.6107H97.6264V10.13C99.9491 8.95415 101.322 7.40397 102.377 4.78516H102.958V9.96918ZM124.861 10.6107H122.485V9.96918H127.973V11.6802C129.188 10.2363 130.508 9.59482 132.513 9.59482C133.833 9.59482 135.257 10.1291 135.996 10.9306C136.788 11.7857 137 12.5335 137 15.046V22.5817H139.322V23.2232H131.67V22.5817H133.834V17.3441C133.834 13.2295 133.675 12.0528 133.094 11.4113C132.725 10.877 132.092 10.6098 131.353 10.6098C130.509 10.6098 129.454 11.1978 128.872 11.9992C128.185 12.907 127.974 14.4045 127.974 18.5207V22.5817H130.086V23.2232H122.485V22.5817H124.861V10.6107ZM142.33 15.474V16.5443C142.33 19.911 142.383 20.6052 142.806 21.3004C143.386 22.2626 144.336 22.7978 145.602 22.7978C147.872 22.7978 149.667 21.3004 150.3 18.7896H151.144C150.615 21.6764 148.293 23.5984 145.339 23.5984C141.854 23.5984 138.636 20.2317 138.636 16.597C138.636 12.8551 141.697 9.59482 145.286 9.59482C148.769 9.59482 151.144 11.8929 151.407 15.474H142.33ZM147.765 14.8324C147.765 12.5871 147.713 12.3217 147.449 11.6802C147.132 10.8779 146.341 10.3971 145.179 10.3971C143.122 10.3971 142.329 11.4122 142.329 14.0318V14.8324H147.765Z" fill="#5D5C60"/>
<path fill-rule="evenodd" clip-rule="evenodd" d="M116.68 1.20303H115.73V1.09668H118.738C120.164 1.09668 120.638 1.15028 121.219 1.47103C121.694 1.68459 121.905 2.00535 121.905 2.32611C121.905 2.75407 121.536 3.12758 120.955 3.39473C120.428 3.55469 119.846 3.66189 118.738 3.66189H117.947V5.85359H118.898V6.01355H115.73V5.85359H116.68V1.20303ZM118.738 3.50193C120.164 3.50193 120.481 3.28838 120.481 2.32611C120.481 1.41744 120.164 1.20388 118.738 1.20388H117.946V3.50278H118.738V3.50193ZM122.434 3.23478H121.641V3.12757H123.489V3.82184C123.804 3.28753 124.228 3.02037 124.755 3.02037C125.177 3.02037 125.494 3.23392 125.494 3.44748C125.494 3.66103 125.283 3.82099 124.912 3.82099C124.596 3.82099 124.438 3.71464 124.385 3.44748C124.384 3.41986 124.372 3.39385 124.352 3.37428C124.333 3.35472 124.307 3.34293 124.279 3.34113C124.174 3.34113 124.068 3.39388 123.963 3.50108C123.592 3.92819 123.488 4.30256 123.488 5.21123V5.85274H124.279V6.0127H121.64V5.85274H122.433V3.23478H122.434ZM129.875 4.57056C129.875 5.42563 128.82 6.12075 127.5 6.12075C126.181 6.12075 125.124 5.42563 125.124 4.57056C125.124 3.71549 126.232 3.02037 127.5 3.02037C128.82 3.02037 129.875 3.71549 129.875 4.57056ZM126.496 3.55469C126.392 3.66189 126.392 3.76824 126.392 4.57056C126.392 5.42563 126.392 5.53283 126.603 5.69278C126.814 5.85274 127.078 5.90635 127.5 5.90635C128.027 5.90635 128.344 5.79914 128.502 5.58558C128.609 5.47923 128.661 5.31843 128.661 4.57056C128.661 3.71549 128.609 3.60829 128.45 3.44834C128.239 3.28838 127.974 3.18118 127.501 3.18118C127.025 3.18118 126.654 3.34113 126.496 3.55469Z" fill="#5D5C60"/>
<path fill-rule="evenodd" clip-rule="evenodd" d="M130.455 3.23491H129.664V3.12771H131.51V3.66203C131.827 3.23492 132.303 3.02051 132.989 3.02051C133.991 3.02051 134.888 3.71563 134.888 4.5171C134.888 5.37217 133.937 6.12089 132.882 6.12089C132.249 6.12089 131.827 5.90733 131.51 5.42577V7.88463H132.303V7.99098H129.664V7.88463H130.455V3.23491ZM131.563 4.5707C131.563 5.37217 132.038 5.90733 132.778 5.90733C133.411 5.90733 133.622 5.58657 133.622 4.5171C133.622 3.76923 133.569 3.55482 133.411 3.39487C133.251 3.28852 133.093 3.18131 132.778 3.18131C132.092 3.18131 131.563 3.76923 131.563 4.5707ZM139.427 5.85373C139.164 6.06728 138.953 6.12089 138.636 6.12089C138.055 6.12089 137.738 5.90733 137.633 5.53297C137.316 5.90733 136.788 6.12089 136.155 6.12089C135.363 6.12089 134.889 5.80012 134.889 5.37301C134.889 4.7851 135.891 4.46435 137.634 4.41074V3.93003C137.634 3.44932 137.634 3.39572 137.474 3.28852C137.37 3.23577 137.105 3.18217 136.841 3.18217C136.472 3.18217 135.997 3.34212 135.997 3.44932C135.997 3.50293 135.997 3.50293 136.05 3.55568C136.155 3.66288 136.208 3.71648 136.208 3.76923C136.208 3.98279 135.997 4.08999 135.733 4.08999C135.417 4.08999 135.206 3.98279 135.206 3.76923C135.206 3.39487 136.05 3.02136 137.052 3.02136C137.634 3.02136 138.161 3.12772 138.425 3.34212C138.689 3.50208 138.689 3.55567 138.689 4.19719V5.21221C138.689 5.85373 138.742 5.90733 138.954 5.90733C139.059 5.90733 139.112 5.85373 139.323 5.74653L139.427 5.85373ZM137.633 4.5171C136.472 4.5707 135.944 4.78425 135.944 5.26496C135.944 5.58572 136.208 5.79927 136.63 5.79927C137.001 5.79927 137.317 5.63932 137.474 5.42492C137.634 5.26497 137.634 5.05141 137.634 4.67705V4.5171H137.633Z" fill="#5D5C60"/>
<path fill-rule="evenodd" clip-rule="evenodd" d="M139.955 3.23479H139.164V3.12758H141.01V3.50195C141.432 3.18119 141.854 3.02123 142.541 3.02123C142.963 3.02123 143.439 3.12759 143.702 3.342C143.967 3.50195 144.018 3.66275 144.018 4.25066V5.85445H144.811V6.01441H142.276V5.85445H142.963V4.73223C142.963 3.82355 142.911 3.5564 142.752 3.4492C142.594 3.34285 142.383 3.23564 142.172 3.23564C141.854 3.23564 141.485 3.3956 141.328 3.55555C141.117 3.7691 141.01 4.08986 141.01 4.99853V5.8536H141.75V6.01356H139.164V5.8536H139.955V3.23479ZM145.812 4.30342V4.57057C145.812 5.31844 145.812 5.42564 145.972 5.58559C146.183 5.79915 146.499 5.90636 146.921 5.90636C147.66 5.90636 148.241 5.58559 148.504 5.05128H148.769C148.558 5.6928 147.819 6.11991 146.816 6.11991C145.655 6.11991 144.6 5.37204 144.6 4.56972C144.6 3.7674 145.602 3.01953 146.816 3.01953C147.978 3.01953 148.769 3.55385 148.822 4.30257H145.812V4.30342ZM147.608 4.19706C147.608 3.66275 147.608 3.60915 147.555 3.50195C147.45 3.28839 147.133 3.18119 146.764 3.18119C146.077 3.18119 145.813 3.44835 145.813 3.98266V4.19706H147.608Z" fill="#5D5C60"/>
<path fill-rule="evenodd" clip-rule="evenodd" d="M106.112 16.1235C106.112 11.6041 110.021 7.8772 114.816 7.8772C119.612 7.8772 123.52 11.6041 123.52 16.1235C123.52 20.7041 119.612 24.3688 114.816 24.3688C110.021 24.3698 106.112 20.7041 106.112 16.1235Z" fill="#17161C"/>
<path d="M107.028 16.1233C107.028 12.106 110.526 8.79321 114.816 8.79321C119.107 8.79321 122.603 12.106 122.603 16.1233C122.603 20.1949 119.107 23.4524 114.816 23.4524C110.526 23.4533 107.028 20.1949 107.028 16.1233Z" stroke="#5D5C60" stroke-miterlimit="2.613"/>
<path d="M108.541 20.5637H120.981M111.191 16.1224C111.191 12.0575 112.813 8.79321 114.869 8.79321C116.87 8.79321 118.548 12.0575 118.548 16.1224C118.548 20.189 116.87 23.4524 114.869 23.4524C112.813 23.4524 111.191 20.189 111.191 16.1224ZM113.624 16.1224C113.624 12.0575 114.166 8.79321 114.869 8.79321C115.518 8.79321 116.059 12.0575 116.059 16.1224C116.059 20.189 115.518 23.4524 114.869 23.4524C114.166 23.4524 113.624 20.189 113.624 16.1224ZM107.135 14.4106H122.603H107.135ZM107.028 17.5676H122.603H107.028ZM108.432 16.1224C108.432 12.0575 111.3 8.79321 114.869 8.79321C118.384 8.79321 121.251 12.0575 121.251 16.1224C121.251 20.189 118.384 23.4524 114.869 23.4524C111.3 23.4524 108.432 20.189 108.432 16.1224ZM108.813 11.4137H120.981H108.813Z" stroke="#5D5C60" stroke-miterlimit="2.613" stroke-linecap="round" stroke-linejoin="round"/>
<path fill-rule="evenodd" clip-rule="evenodd" d="M154.997 10.7178C154.997 10.2907 154.786 9.9691 154.31 9.9691C153.624 9.9691 153.571 10.3971 153.571 10.7178C153.571 11.0386 153.729 11.1985 153.993 11.3057C154.204 11.3593 154.415 11.4657 154.626 11.5729C155.419 11.8392 155.576 12.1072 155.576 12.6951C155.576 13.4957 155.101 13.9782 154.257 13.9782C153.835 13.9782 153.359 13.8173 153.148 13.2839C153.043 13.0695 153.043 12.7487 153.043 12.5343H153.517C153.465 13.1222 153.624 13.551 154.31 13.551C154.786 13.551 155.102 13.2839 155.102 12.8015C155.102 12.16 154.837 12.16 154.415 12C154.204 11.8928 153.835 11.7864 153.571 11.6801C153.202 11.4657 153.095 11.1449 153.095 10.7178C153.095 10.0236 153.571 9.54199 154.257 9.54199C155.048 9.54199 155.47 9.96911 155.47 10.7178H154.997ZM158.796 9.64834H159.589V13.8701H159.167V10.3426V9.8083H159.114C159.061 10.0755 159.061 10.2363 159.008 10.3962L158.112 13.8701H157.583L156.686 10.3426C156.633 10.1827 156.633 10.0755 156.581 9.8083V13.8701H156.106V9.64834H156.95L157.741 12.9087C157.794 13.1231 157.847 13.2839 157.847 13.5519C157.899 13.3375 157.899 13.1231 157.952 12.9087L158.796 9.64834Z" fill="#5D5C60"/>
</svg>
