<svg width="150" height="64" viewBox="0 0 150 64" fill="none" xmlns="http://www.w3.org/2000/svg">
<path fill-rule="evenodd" clip-rule="evenodd" d="M70.5185 21.209C86.6245 9.4839 103.672 2.27408 112.027 3.82342L112.433 3.89063L112.568 3.55371L113.174 2.20601L113.443 1.66745L112.905 1.46495C104.616 -1.29765 86.0842 5.91302 68.7659 18.5808C47.4044 34.1474 34.6013 52.0051 39.588 59.2813C39.7905 59.5519 39.9921 59.8216 40.2618 60.0905L41.1381 59.4838C38.3083 52.1396 51.2458 35.3606 70.5185 21.209Z" fill="#828186"/>
<path fill-rule="evenodd" clip-rule="evenodd" d="M37.0279 13.3926C38.3756 13.3926 39.993 13.527 42.149 13.527C44.8444 13.4598 45.7879 13.3926 47.2709 13.3926V14.7403C44.1705 15.01 43.8345 15.4141 42.8228 17.907C41.3407 21.546 38.915 29.3624 37.2976 34.4171C36.1516 37.8536 34.9392 41.8966 33.6587 45.8733H31.3002C29.8173 40.2801 26.6505 29.296 23.4157 18.312C19.3046 32.6661 17.283 39.0668 15.3968 45.8733C14.7229 45.7389 13.8466 45.8733 13.0383 45.8733C11.1512 38.4602 6.50149 22.9617 4.74966 17.7054C3.8061 15.1444 3.33475 14.7403 0.234375 14.7403V13.3926C1.24514 13.3926 2.72812 13.527 5.55793 13.527C7.2417 13.527 9.0616 13.3926 10.9487 13.3926L11.2176 14.7403L8.52218 15.01C7.78112 15.0772 7.7139 15.4141 7.91555 16.088C10.2068 24.7135 13.4416 35.5623 15.059 41.3581C18.8332 28.6213 22.4713 16.088 22.9435 13.527C23.7518 13.5942 24.8306 13.5942 25.5045 13.527C25.9086 15.4141 29.1434 27.4081 33.389 41.4925C37.3649 29.4305 40.0602 19.4572 40.5997 16.829C40.9366 15.4141 40.8685 15.0772 39.6561 14.9419L37.1624 14.7403L37.0279 13.3926Z" fill="#67666B"/>
<path fill-rule="evenodd" clip-rule="evenodd" d="M56.5023 43.0427C55.289 44.4568 52.9306 45.9389 49.3588 45.9389C45.788 45.9389 43.2942 44.7257 41.6768 42.5705C40.3963 40.817 39.6553 38.1216 39.6553 35.2918C39.6553 29.16 43.227 23.4995 49.6958 23.4995C56.2998 23.4995 57.6475 28.8903 57.5803 31.8554C57.5803 32.8661 57.3106 33.6072 56.4342 33.876C55.4235 34.213 52.7953 34.4844 49.6958 34.4844C47.8095 34.4844 45.046 34.5507 43.0926 34.4844C42.9573 37.515 43.7664 40.0096 44.7763 41.4236C45.9896 43.1083 48.0784 43.9182 50.3024 43.9182C53.2675 43.9182 54.9521 42.7713 56.2326 41.0204L56.8384 41.2229L56.5023 43.0427ZM49.2244 24.9152C45.2485 24.9152 43.4286 29.565 43.227 32.9342H48.1456C50.909 32.9342 52.3911 32.7998 53.2675 32.5973C53.9413 32.4628 54.2783 31.9906 54.2783 31.0471C54.2783 27.9476 52.9306 24.9152 49.2916 24.9152H49.2244ZM70.2489 31.1824C70.0464 27.5434 68.3618 24.9152 65.4639 24.9152C63.1727 24.9152 61.8922 26.5999 61.8922 28.8911C61.8922 30.1716 62.3644 31.1824 63.5768 31.789C65.1262 32.5292 67.7543 33.5417 69.7759 34.4172C72.2696 35.496 73.482 37.1126 73.482 39.4702C73.482 43.8502 69.102 45.9398 65.1262 45.9398C62.4308 45.9398 59.8026 45.3331 58.4549 44.7265C58.4549 43.5813 58.5893 40.2112 58.4549 37.6511L59.6682 37.3151C59.8026 38.3939 60.0051 39.6727 60.4092 40.8859C61.1503 43.2435 62.9702 44.4568 65.4631 44.4568C68.5635 44.4568 70.4497 42.8403 70.4497 40.3457C70.4497 39.066 70.0456 38.1225 68.5635 37.3814C66.8108 36.5059 64.3851 35.4271 62.7005 34.686C60.5437 33.8105 59.0615 32.3948 59.0615 29.8347C59.0615 26.0604 62.0258 23.5003 65.8 23.5003C67.7543 23.5003 69.2373 24.0389 69.9112 24.6455L70.4497 23.0954L71.7302 23.4323C71.4605 25.858 71.3933 28.6206 71.5286 30.9118L70.2489 31.1824ZM87.7698 24.2414L87.5009 25.7235L79.7509 25.9932C79.7509 27.6779 79.6164 29.4977 79.6164 33.4064C79.6164 38.1905 79.6164 40.8179 79.887 42.0992C80.1558 43.4469 80.9641 44.1199 82.4462 44.1199C84.7375 44.1199 86.423 42.3 87.164 39.5382H87.7707L88.3773 41.2901C87.0296 44.3224 84.4006 45.9398 81.4363 45.9398C79.1451 45.9398 77.8655 45.1324 77.1925 44.1879C76.7202 43.4469 76.5178 42.6378 76.5178 41.1556C76.5178 36.9781 76.7202 29.9019 76.7202 25.9941L73.0805 25.7244L73.3502 24.2423H76.7866C76.7866 22.7593 76.8547 20.7377 76.921 18.7843C77.9999 18.0424 79.0098 17.2341 79.6164 16.6274L80.0886 16.8291C80.0223 18.1096 79.8198 21.7485 79.8878 24.2414H87.7698Z" fill="#67666B"/>
<path fill-rule="evenodd" clip-rule="evenodd" d="M88.0387 11.9777C91.2743 11.9097 93.4975 11.6408 94.8452 11.3711C94.7772 13.5279 94.6427 17.1669 94.6427 21.4116V33.945C94.6427 39.3357 94.6427 41.6933 94.7108 42.7722C94.8452 43.7838 95.3174 43.9191 98.0792 44.0535L97.9447 45.4012C96.1248 45.4012 94.5083 45.2668 92.622 45.2668C90.5996 45.1987 88.915 45.4012 87.8379 45.4012V44.0535C90.8685 43.9854 91.3407 43.6477 91.4088 42.7722C91.4088 41.8967 91.6096 38.1905 91.6096 33.945V21.1419C91.6096 16.6946 91.6096 15.4142 91.5432 13.9993C91.4751 13.3926 91.1391 13.1901 88.0387 13.2574V11.9777ZM114.86 24.0389C115.735 24.0389 117.015 24.1742 119.037 24.1742C120.588 24.1742 122.205 24.0389 124.022 24.0389L124.225 25.3866L122.068 25.5891C121.192 25.5891 121.126 25.9932 121.327 26.7343C122.474 30.5085 124.293 36.2362 125.91 41.5589C127.527 37.1117 130.222 28.2845 131.705 24.107C132.38 24.1742 132.852 24.1742 133.593 24.0389C134.535 27.4081 137.771 36.9092 139.388 41.5589C141.545 35.0229 143.095 29.4977 143.634 27.1384C143.836 26.1957 143.902 25.6563 143.095 25.5891L140.6 25.3866L140.803 24.0389C142.419 24.0389 144.171 24.1742 145.721 24.1742C147.608 24.1742 148.754 24.0389 149.63 24.0389L149.698 25.3194C147.204 25.5891 146.732 25.8579 145.79 28.0148C144.171 31.8562 141.341 39.9424 139.522 45.6701C138.983 45.6701 138.714 45.7381 138.511 45.7381C138.307 45.7381 138.039 45.8045 137.635 45.8726C136.488 42.0983 133.93 34.7541 131.84 28.7558C129.885 34.6852 127.528 41.0884 125.978 45.8726C125.572 45.8045 125.169 45.7381 124.899 45.7381C124.563 45.6701 124.359 45.6701 124.09 45.6701C122.54 39.8071 119.373 30.306 118.161 27.2737C117.554 25.7235 117.149 25.4547 114.859 25.3866V24.0389H114.86ZM111.22 29.0255C111.22 27.1384 110.411 24.848 107.177 24.848C103.875 24.848 102.594 27.3409 102.393 30.5085L101.987 30.8454C101.583 30.9127 100.976 30.8454 100.438 30.6429C99.8319 30.4413 99.4949 29.9691 99.4949 29.2952C99.4949 26.8024 102.797 23.5003 107.716 23.5003C111.421 23.5003 113.04 25.2522 113.578 26.1285C114.051 26.8024 114.185 27.8123 114.185 28.6886V41.0204C114.185 43.3116 115.33 44.0527 116.543 44.0527C117.015 44.0527 117.42 43.9846 117.756 43.9182L117.487 45.1315C117.083 45.5356 116.274 45.9389 115.13 45.9389C112.501 45.9389 111.423 44.3224 111.153 42.2336C108.93 44.5912 106.234 45.9389 103.942 45.9389C100.237 45.9389 98.1472 43.2435 98.1472 40.0096C98.1472 38.1897 98.7539 36.6395 100.574 35.6959C101.787 34.8885 103.604 34.1475 105.762 33.2711C107.784 32.462 109.671 31.7209 111.221 30.979V29.0255H111.22ZM101.652 39.5382C101.652 42.1655 102.931 43.7838 105.223 43.7838C107.649 43.7838 109.872 42.0992 110.95 39.4702C111.151 38.8635 111.219 38.1905 111.219 37.5839V32.6653C109.265 33.3383 106.636 34.2819 104.547 35.4951C102.931 36.3706 101.651 37.315 101.651 39.4702V39.5382H101.652Z" fill="#67666B"/>
<path fill-rule="evenodd" clip-rule="evenodd" d="M144.442 43.4469C144.442 41.8967 145.653 40.8179 147.137 40.8179C148.551 40.8179 149.765 41.8967 149.765 43.4469C149.765 44.929 148.551 46.0742 147.137 46.0742C145.653 46.0742 144.442 44.929 144.442 43.4469ZM147.137 45.602C148.282 45.602 149.226 44.6602 149.226 43.4469C149.226 42.1656 148.282 41.2237 147.137 41.2237C145.924 41.2237 144.98 42.1656 144.98 43.4469C144.977 43.7311 145.03 44.0132 145.137 44.2765C145.244 44.5398 145.403 44.7789 145.604 44.9798C145.805 45.1807 146.044 45.3393 146.308 45.4462C146.571 45.553 146.853 45.606 147.137 45.602ZM146.531 44.929H146.125V41.8967H147.272C147.945 41.8967 148.349 42.1656 148.349 42.7722C148.349 43.3125 148.013 43.5813 147.541 43.5813L148.417 44.929H147.878L147.069 43.6477H146.531V44.929ZM147.137 43.2444C147.473 43.2444 147.878 43.2444 147.878 42.7722C147.878 42.3681 147.473 42.3 147.204 42.3H146.531V43.2436H147.137V43.2444Z" fill="#67666B"/>
<path fill-rule="evenodd" clip-rule="evenodd" d="M86.2876 44.188C67.4862 57.9337 48.4841 63.5959 41.6103 59.5528C41.5423 59.5528 41.4751 59.4848 41.3406 59.4167C41.0037 59.2159 38.8469 57.6649 38.9822 58.069C39.2519 58.8101 39.5207 59.6873 40.1274 60.4283C45.114 67.0987 66.8796 61.035 87.4319 45.9398C104.481 33.5417 121.327 13.1229 116.88 5.77783L116.475 5.97948C119.372 13.5271 106.031 29.6994 86.2876 44.188Z" fill="#828186"/>
</svg>
