<svg width="71" height="71" viewBox="0 0 71 71" fill="none" xmlns="http://www.w3.org/2000/svg">
<g clip-path="url(#clip0_136_1495)">
<path d="M15.01 46.8737H9.91406C9.14832 46.8737 8.52734 47.4947 8.52734 48.2604V53.3563C8.52734 54.1221 9.14832 54.7431 9.91406 54.7431H15.01C15.7757 54.7431 16.3967 54.1221 16.3967 53.3563V48.2604C16.3967 47.4946 15.7759 46.8737 15.01 46.8737ZM13.6233 51.9696H11.3008V49.6472H13.6233V51.9696Z" fill="#E56033"/>
<path d="M26.3059 46.8737H21.21C20.4442 46.8737 19.8232 47.4947 19.8232 48.2604V53.3563C19.8232 54.1221 20.4442 54.7431 21.21 54.7431H26.3059C27.0716 54.7431 27.6926 54.1221 27.6926 53.3563V48.2604C27.6926 47.4946 27.0718 46.8737 26.3059 46.8737ZM24.9192 51.9696H22.5967V49.6472H24.9192V51.9696Z" fill="#E56033"/>
<path d="M15.01 57.5752H9.91406C9.14832 57.5752 8.52734 58.1961 8.52734 58.9619V64.0578C8.52734 64.8235 9.14832 65.4445 9.91406 65.4445H15.01C15.7757 65.4445 16.3967 64.8235 16.3967 64.0578V58.9619C16.3967 58.196 15.7759 57.5752 15.01 57.5752ZM13.6233 62.6711H11.3008V60.3486H13.6233V62.6711Z" fill="#E56033"/>
<path d="M26.3059 57.5752H21.21C20.4442 57.5752 19.8232 58.1961 19.8232 58.9619V64.0578C19.8232 64.8235 20.4442 65.4445 21.21 65.4445H26.3059C27.0716 65.4445 27.6926 64.8235 27.6926 64.0578V58.9619C27.6926 58.196 27.0718 57.5752 26.3059 57.5752ZM24.9192 62.6711H22.5967V60.3486H24.9192V62.6711Z" fill="#E56033"/>
<path d="M21.0781 35.837C20.8188 35.579 20.4624 35.4307 20.0977 35.4307C19.7316 35.4307 19.3752 35.5789 19.1172 35.837C18.8581 36.0949 18.7109 36.4527 18.7109 36.8174C18.7109 37.1821 18.8581 37.5399 19.1172 37.7977C19.3752 38.0556 19.7329 38.2041 20.0977 38.2041C20.4624 38.2041 20.8188 38.0557 21.0781 37.7977C21.3359 37.5399 21.4844 37.1821 21.4844 36.8174C21.4844 36.4527 21.336 36.0949 21.0781 35.837Z" fill="#E56033"/>
<path d="M69.6133 68.2263H68.2266V32.995C68.2266 32.2293 67.6056 31.6083 66.8398 31.6083H60.2012V13.744C60.2012 13.2308 59.9178 12.7595 59.4643 12.519L36.1674 0.161404C35.7375 -0.0665729 35.2197 -0.0528444 34.8029 0.198152C34.3859 0.449009 34.1309 0.89997 34.1309 1.38643V15.531H20.0973C19.3316 15.531 18.7106 16.1519 18.7106 16.9177V31.301C18.7106 32.0668 19.3316 32.6877 20.0973 32.6877C20.863 32.6877 21.484 32.0668 21.484 31.301V18.3044H40.3434V23.8427H35.5176C34.7519 23.8427 34.1309 24.4637 34.1309 25.2294C34.1309 25.9951 34.7519 26.6161 35.5176 26.6161H40.3434V31.6083H35.5176C34.7519 31.6083 34.1309 32.2293 34.1309 32.995C34.1309 33.7608 34.7519 34.3817 35.5176 34.3817H40.3434V39.3739H35.5176C34.7519 39.3739 34.1309 39.9949 34.1309 40.7606C34.1309 41.5264 34.7519 42.1474 35.5176 42.1474H40.3434V47.1395H35.5176C34.7519 47.1395 34.1309 47.7605 34.1309 48.5263C34.1309 49.292 34.7519 49.913 35.5176 49.913H40.3434V54.9052H35.5176C34.7519 54.9052 34.1309 55.5261 34.1309 56.2919C34.1309 57.0576 34.7519 57.6786 35.5176 57.6786H40.3434V62.6708H35.5176C34.7519 62.6708 34.1309 63.2918 34.1309 64.0575C34.1309 64.8233 34.7519 65.4442 35.5176 65.4442H40.3434V68.2263H33.2812V42.7106C33.2812 41.9449 32.6603 41.3239 31.8945 41.3239H4.16016C3.39441 41.3239 2.77344 41.9449 2.77344 42.7106V68.2263H1.38672C0.620973 68.2263 0 68.8472 0 69.613C0 70.3787 0.620973 70.9997 1.38672 70.9997H69.6133C70.379 70.9997 71 70.3787 71 69.613C71 68.8472 70.3792 68.2263 69.6133 68.2263ZM30.5078 68.2263H5.54688V44.0974H30.5078V68.2263ZM47.7031 32.995V68.2263H43.1168V16.9177C43.1168 16.1519 42.4959 15.531 41.7301 15.531H36.9043V3.69171L57.4278 14.5783V31.6083H49.0898C48.3241 31.6083 47.7031 32.2293 47.7031 32.995ZM65.4531 39.3739H57.9648C57.1991 39.3739 56.5781 39.9949 56.5781 40.7606C56.5781 41.5264 57.1991 42.1474 57.9648 42.1474H65.4531V47.1395H57.9648C57.1991 47.1395 56.5781 47.7605 56.5781 48.5263C56.5781 49.292 57.1991 49.913 57.9648 49.913H65.4531V54.9052H57.9648C57.1991 54.9052 56.5781 55.5261 56.5781 56.2919C56.5781 57.0576 57.1991 57.6786 57.9648 57.6786H65.4531V62.6708H61.2468C60.481 62.6708 59.8601 63.2918 59.8601 64.0575C59.8601 64.8233 60.481 65.4442 61.2468 65.4442H65.4531V68.2263H50.4766V34.3817H65.4531V39.3739Z" fill="#E56033"/>
<path d="M55.9402 63.0778C55.6824 62.8197 55.3261 62.6714 54.96 62.6714C54.5953 62.6714 54.2375 62.8197 53.9796 63.0778C53.7216 63.3356 53.5732 63.6934 53.5732 64.0581C53.5732 64.4228 53.7215 64.7806 53.9796 65.0385C54.2376 65.2964 54.5953 65.4448 54.96 65.4448C55.3261 65.4448 55.6824 65.2966 55.9402 65.0385C56.1995 64.7806 56.3467 64.4228 56.3467 64.0581C56.3467 63.692 56.1995 63.3356 55.9402 63.0778Z" fill="#E56033"/>
<path d="M47.7031 15.6699C46.9374 15.6699 46.3164 16.2909 46.3164 17.0566V19.6452C46.3164 20.4111 46.9374 21.0319 47.7031 21.0319C48.4689 21.0319 49.0898 20.411 49.0898 19.6452V17.0566C49.0898 16.2909 48.4689 15.6699 47.7031 15.6699Z" fill="#E56033"/>
<path d="M47.7031 23.8428C46.9374 23.8428 46.3164 24.4638 46.3164 25.2296V28.0851C46.3164 28.851 46.9374 29.4718 47.7031 29.4718C48.4689 29.4718 49.0898 28.8508 49.0898 28.0851V25.2296C49.0898 24.4638 48.4689 23.8428 47.7031 23.8428Z" fill="#E56033"/>
<path d="M53.25 15.6699C52.4843 15.6699 51.8633 16.2909 51.8633 17.0566V19.6452C51.8633 20.4111 52.4843 21.0319 53.25 21.0319C54.0157 21.0319 54.6367 20.411 54.6367 19.6452V17.0566C54.6367 16.2909 54.0157 15.6699 53.25 15.6699Z" fill="#E56033"/>
<path d="M53.25 23.8428C52.4843 23.8428 51.8633 24.4638 51.8633 25.2296V28.0851C51.8633 28.851 52.4843 29.4718 53.25 29.4718C54.0157 29.4718 54.6367 28.8508 54.6367 28.0851V25.2296C54.6367 24.4638 54.0157 23.8428 53.25 23.8428Z" fill="#E56033"/>
</g>
<defs>
<clipPath id="clip0_136_1495">
<rect width="71" height="71" fill="white"/>
</clipPath>
</defs>
</svg>
