<svg width="77" height="77" viewBox="0 0 77 77" fill="none" xmlns="http://www.w3.org/2000/svg">
<g clip-path="url(#clip0_136_1534)">
<path d="M76.9948 66.8349L76.943 65.6515C76.9166 65.0468 76.4015 64.5789 75.8004 64.6048C75.1958 64.6313 74.7272 65.1427 74.7536 65.7475L74.8058 66.9404C74.8063 66.9476 74.8066 66.9548 74.807 66.962C74.8212 67.1825 74.7457 67.3926 74.5947 67.5535C74.4446 67.7135 74.2413 67.8016 74.0223 67.8016H67.6114V47.5742L69.2642 48.1583C72.1125 49.1649 74.0779 51.7644 74.2742 54.7832L74.4559 58.9393C74.4823 59.5438 74.9931 60.0137 75.5984 59.986C76.2031 59.9595 76.6717 59.448 76.6453 58.8435L76.4631 54.6764C76.4627 54.6692 76.4624 54.662 76.4619 54.6548C76.2136 50.7539 73.675 47.3928 69.9944 46.0923L66.9339 45.0107C66.9159 45.0031 66.8992 44.9935 66.8807 44.987L57.7405 41.7566C57.739 41.756 57.7374 41.7554 57.7359 41.755C57.7019 41.7433 57.6682 41.7333 57.6339 41.7245C57.6166 41.7198 57.5992 41.7168 57.5819 41.713C56.977 41.5565 56.3216 41.7305 55.8758 42.177L55.5932 42.46L53.1814 41.2494L53.1811 39.1352C53.9099 38.6335 54.5963 38.0351 55.2195 37.3673C55.2269 37.3594 55.2343 37.3515 55.2416 37.3436C56.8155 35.6487 57.9771 33.5149 58.3723 31.395C58.3828 31.3391 58.3932 31.283 58.4027 31.227C58.4125 31.169 58.4216 31.1111 58.4302 31.0532C58.4447 30.9563 58.4573 30.8596 58.4684 30.7631C58.4711 30.7399 58.4746 30.7166 58.477 30.6934C58.4881 30.5885 58.4976 30.4836 58.5047 30.3793H58.9594C60.3719 30.3793 61.521 29.2301 61.521 27.8177V24.9466C61.521 24.8107 61.5092 24.6761 61.488 24.5432C61.6495 24.2498 61.7424 23.9126 61.7424 23.5533V22.3291C61.7424 21.3984 61.1239 20.6114 60.2814 20.3681V20.1953C60.2814 20.0907 60.28 19.9864 60.2775 19.8826C60.2033 16.9606 59.056 14.1927 57.0472 12.0889C55.2147 10.1697 52.8176 8.95488 50.236 8.62327C50.1966 8.55259 50.1539 8.48431 50.1095 8.41724C50.0981 8.40009 50.0861 8.38355 50.0743 8.36655C50.0295 8.30158 49.9823 8.23857 49.933 8.17751C49.9243 8.16683 49.916 8.15586 49.9073 8.14533C49.8462 8.07179 49.7821 8.0011 49.7148 7.93358C49.7125 7.93132 49.7101 7.92922 49.7077 7.92681C49.6421 7.86154 49.5735 7.79958 49.5026 7.74033C49.4946 7.73371 49.4868 7.72694 49.4788 7.72032C49.3326 7.60061 49.1758 7.49459 49.0102 7.4027C48.9953 7.39443 48.9806 7.38615 48.9655 7.37803C48.8833 7.33412 48.7995 7.29291 48.7133 7.25637C48.7089 7.25456 48.7043 7.25306 48.6998 7.2511C48.6202 7.21772 48.5387 7.18854 48.4561 7.16177C48.4337 7.1544 48.4112 7.14733 48.3886 7.14057C48.3009 7.1144 48.2125 7.09049 48.1221 7.07184C48.117 7.07078 48.1119 7.07018 48.1068 7.06928C48.0203 7.05184 47.9325 7.0392 47.8437 7.02898C47.8194 7.02612 47.795 7.02371 47.7705 7.02146C47.6761 7.01288 47.581 7.00702 47.4848 7.00702H46.4505C46.3543 7.00702 46.2592 7.01288 46.1648 7.02146C46.1401 7.02371 46.1158 7.02627 46.0914 7.02898C46.003 7.03905 45.9153 7.05184 45.829 7.06913C45.8237 7.07018 45.8184 7.07078 45.8132 7.07184C45.7229 7.09049 45.6343 7.11425 45.5468 7.14042C45.5241 7.14718 45.5016 7.1544 45.479 7.16177C45.3966 7.18854 45.3152 7.21772 45.2357 7.25095C45.2312 7.25291 45.2263 7.25441 45.2218 7.25637C45.1357 7.29291 45.052 7.33412 44.9698 7.37788C44.9546 7.386 44.9395 7.39443 44.9245 7.4027C44.8442 7.44721 44.7654 7.49444 44.6893 7.54572C44.6891 7.54587 44.6888 7.54602 44.6887 7.54617C44.6084 7.60031 44.5312 7.65881 44.4562 7.72017C44.4481 7.72679 44.4401 7.73371 44.4321 7.74048C44.3613 7.79958 44.2929 7.86139 44.2274 7.92651C44.225 7.92892 44.2225 7.93117 44.2201 7.93358C44.1529 8.00095 44.0888 8.07164 44.0279 8.14503C44.019 8.15571 44.0106 8.16668 44.0019 8.17751C43.9525 8.23842 43.9055 8.30143 43.8606 8.36625C43.8489 8.38325 43.8367 8.39979 43.8253 8.41708C43.7809 8.48401 43.7382 8.55244 43.6988 8.62312C41.1174 8.95473 38.7201 10.1697 36.8878 12.0886C35.9089 13.1138 35.1365 14.2974 34.5911 15.5788L28.2442 9.63315C26.9415 8.41287 24.9033 8.41558 23.6042 9.63961L16.7193 16.1254L16.7181 15.3671C16.7175 14.9325 16.5477 14.5242 16.2398 14.2174C15.9326 13.911 15.5249 13.7424 15.0912 13.7424C15.0904 13.7424 15.0895 13.7424 15.0888 13.7424L9.92734 13.7496C9.03041 13.751 8.30146 14.4817 8.30252 15.3791L8.31665 24.0409L1.06495 30.8723C0.406091 31.4929 0.0284592 32.3329 0.00153925 33.2376C-0.0253807 34.1424 0.301569 35.0033 0.922082 35.6619C1.54259 36.3208 2.38253 36.6984 3.28728 36.7255C3.32202 36.7265 3.35646 36.727 3.3909 36.727C4.2576 36.727 5.07829 36.4017 5.71173 35.8048L8.16747 33.4913L8.17814 41.1734C8.17905 41.778 8.66932 42.2675 9.27389 42.2675C9.27434 42.2675 9.27494 42.2675 9.27539 42.2675C9.88057 42.2666 10.3705 41.7754 10.3696 41.1703L10.356 31.4298L25.9337 16.7548L32.1921 22.6176V23.5532C32.1921 23.6166 32.1959 23.6795 32.2016 23.7419C32.2026 23.7535 32.2035 23.7651 32.2049 23.7767C32.2341 24.0505 32.3159 24.3116 32.446 24.5468C32.4252 24.6784 32.4136 24.8118 32.4136 24.9464V27.8175C32.4136 29.23 33.5628 30.3791 34.9754 30.3791H35.4287C35.4357 30.4874 35.4454 30.596 35.4568 30.705C35.46 30.7357 35.4643 30.7665 35.4679 30.7972C35.4785 30.8876 35.4902 30.9781 35.5036 31.069C35.5115 31.1234 35.52 31.178 35.529 31.2324C35.5398 31.2973 35.552 31.3624 35.5642 31.4273C35.5894 31.5619 35.6179 31.6967 35.6493 31.8313C35.655 31.856 35.6603 31.8806 35.6663 31.9053C35.6881 31.9957 35.7117 32.0859 35.7362 32.1761C35.7412 32.1942 35.7461 32.2124 35.7513 32.2304C35.9463 32.9343 36.2209 33.6331 36.5626 34.3109C36.5662 34.3182 36.5698 34.3254 36.5736 34.3326C36.7102 34.6024 36.8572 34.8684 37.0142 35.1303C37.035 35.1649 37.0555 35.1995 37.0765 35.2339C37.1189 35.3032 37.1619 35.3723 37.2057 35.4408C37.2388 35.4927 37.2725 35.5443 37.3063 35.5957C37.3444 35.6536 37.382 35.7118 37.4209 35.7693C37.4904 35.8717 37.5617 35.9731 37.6342 36.0738C37.6651 36.1168 37.6969 36.1591 37.7283 36.2018C37.7823 36.275 37.837 36.3478 37.8927 36.42C37.9231 36.4594 37.9533 36.4988 37.984 36.5378C38.0596 36.6339 38.1366 36.7292 38.215 36.8234C38.2262 36.8369 38.2371 36.8506 38.2484 36.864C38.3345 36.9667 38.4227 37.0676 38.512 37.1678C38.5434 37.2031 38.5753 37.2379 38.607 37.2727C38.6699 37.3418 38.7335 37.4102 38.7979 37.4779C38.8335 37.5153 38.8689 37.5529 38.9048 37.5899C38.9821 37.6693 39.0605 37.7477 39.1396 37.8251C39.1966 37.8809 39.2545 37.9355 39.3125 37.9901C39.3611 38.0358 39.4097 38.0817 39.459 38.1267C39.5187 38.1813 39.579 38.2348 39.6396 38.288C39.6718 38.3163 39.7043 38.3443 39.7368 38.3721C40.0645 38.6544 40.4039 38.9171 40.7533 39.1577L40.753 41.2489L38.3419 42.4599L38.0589 42.1764C37.7879 41.9049 37.4394 41.7341 37.072 41.6768C37.0312 41.6705 36.9902 41.6655 36.949 41.6619C36.9078 41.6584 36.8664 41.6562 36.8249 41.6556C36.7835 41.655 36.7419 41.6557 36.7005 41.658C36.5868 41.6642 36.4733 41.6821 36.3612 41.7105C36.3399 41.715 36.3184 41.7192 36.297 41.7249C36.2636 41.7336 36.2236 41.7455 36.1942 41.756L32.0799 43.2102L32.0691 35.4163C32.0677 34.4114 31.2498 33.5951 30.2453 33.5951C30.2444 33.5951 30.2436 33.5951 30.2427 33.5951L21.672 33.6071C21.1849 33.6079 20.7271 33.7981 20.3831 34.1431C20.0392 34.488 19.85 34.9463 19.8507 35.4335L19.8695 48.8455C19.868 48.8473 19.8665 48.8491 19.8649 48.8509C19.8352 48.8846 19.8071 48.9195 19.7779 48.9536C19.7313 49.0082 19.6844 49.0625 19.639 49.1183C19.6104 49.1533 19.5832 49.1894 19.5552 49.2249C19.5108 49.2809 19.4662 49.3365 19.4232 49.3935C19.3956 49.4299 19.3695 49.4673 19.3424 49.5042C19.3005 49.5613 19.2579 49.6182 19.2171 49.6764C19.1908 49.7138 19.166 49.7523 19.1403 49.7901C19.1004 49.8486 19.0601 49.9069 19.0215 49.9663C18.9964 50.005 18.9726 50.0447 18.9481 50.0838C18.9105 50.1435 18.8724 50.203 18.8362 50.2637C18.8126 50.3031 18.7905 50.3434 18.7673 50.3831C18.7318 50.4444 18.6957 50.5055 18.6614 50.5676C18.6389 50.6087 18.6177 50.6505 18.5957 50.692C18.5629 50.7538 18.5295 50.8151 18.498 50.8777C18.4759 50.9215 18.4554 50.966 18.4339 51.0101C18.4041 51.0713 18.3739 51.1322 18.3453 51.1941C18.3244 51.2394 18.3052 51.2854 18.285 51.3311C18.2578 51.3929 18.23 51.4543 18.204 51.5167C18.1844 51.5636 18.1664 51.6115 18.1476 51.6588C18.1229 51.7206 18.0976 51.7822 18.0743 51.8446C18.056 51.8936 18.0393 51.9432 18.0217 51.9926C17.9997 52.0544 17.977 52.1159 17.9561 52.1781C17.9393 52.2285 17.9241 52.2796 17.9081 52.3303C17.8886 52.3923 17.8683 52.454 17.8499 52.5165C17.8347 52.5684 17.8212 52.6209 17.8068 52.6731C17.7896 52.7353 17.7717 52.7973 17.7558 52.86C17.7424 52.9126 17.7307 52.966 17.7182 53.0191C17.7033 53.082 17.6877 53.1447 17.674 53.208C17.6622 53.2625 17.6523 53.3175 17.6415 53.3722C17.6292 53.4348 17.6161 53.4971 17.6048 53.5599C17.5947 53.6168 17.5864 53.6741 17.5774 53.7311C17.5676 53.7926 17.557 53.8539 17.5484 53.9158C17.5401 53.9744 17.5338 54.0335 17.5267 54.0923C17.5194 54.1534 17.5111 54.2141 17.5048 54.2755C17.4986 54.3352 17.4944 54.3953 17.4894 54.4554C17.4848 54.5113 17.4789 54.5671 17.4752 54.6232L10.4333 54.633C10.4086 54.633 10.3886 54.613 10.3886 54.5883L10.3794 47.9786C10.3785 47.3739 9.88824 46.8844 9.28367 46.8844C9.28322 46.8844 9.28261 46.8844 9.28216 46.8844C8.67699 46.8853 8.18702 47.3764 8.18792 47.9816L8.19709 54.5915C8.1989 55.8235 9.2017 56.8245 10.4333 56.8245C10.4343 56.8245 10.4354 56.8245 10.4363 56.8245L17.3785 56.8148L16.9402 66.8349C16.8916 67.6499 17.1837 68.4578 17.7423 69.0531C18.3028 69.6504 19.094 69.993 19.9127 69.993H74.0223C74.841 69.993 75.6321 69.6504 76.1926 69.0531C76.7513 68.4578 77.0433 67.6499 76.9948 66.8349ZM59.3296 27.8175C59.3296 28.0216 59.1635 28.1876 58.9594 28.1876H58.5218V25.5919H59.3296V27.8175ZM45.5172 9.93272C45.5182 9.92881 45.5201 9.9252 45.5211 9.92129C45.5614 9.76399 45.6395 9.62442 45.7435 9.51073C45.7461 9.50787 45.7486 9.50501 45.7512 9.50231C45.7841 9.46711 45.8198 9.43463 45.8575 9.40485C45.8619 9.40139 45.8666 9.39808 45.8711 9.39478C45.9475 9.33673 46.0324 9.2904 46.1236 9.25717C46.1305 9.25461 46.1373 9.2519 46.1442 9.24965C46.1879 9.23491 46.2331 9.22333 46.2792 9.21491C46.2875 9.2134 46.2959 9.21235 46.3042 9.21115C46.3522 9.20378 46.4007 9.19882 46.4504 9.19882H47.4846C47.5342 9.19882 47.583 9.20378 47.6308 9.21115C47.6391 9.21235 47.6475 9.2134 47.6558 9.21491C47.7018 9.22333 47.7469 9.23476 47.7907 9.24965C47.7977 9.25206 47.8046 9.25476 47.8117 9.25732C47.9025 9.2904 47.9874 9.33672 48.0636 9.39463C48.0683 9.39808 48.0731 9.40154 48.0776 9.405C48.1152 9.43463 48.1505 9.46696 48.1835 9.502C48.1863 9.50501 48.1889 9.50802 48.1916 9.51103C48.2955 9.62472 48.3734 9.76399 48.4137 9.92114C48.4148 9.92505 48.4166 9.92851 48.4176 9.93242C48.4355 10.0055 48.4461 10.0816 48.4461 10.1601V13.8575C48.4461 14.3876 48.0147 14.8189 47.4848 14.8189H46.4505C45.9204 14.8189 45.4891 14.3876 45.4891 13.8575V10.1601H45.4889C45.4889 10.0816 45.4995 10.0058 45.5172 9.93272ZM14.5275 15.9345L14.5311 18.1865L10.5047 21.9796L10.4949 15.9402L14.5275 15.9345ZM33.8559 18.0197C33.835 18.1322 33.8145 18.2447 33.7968 18.3581C33.7869 18.4215 33.7787 18.485 33.7699 18.5486C33.7554 18.6519 33.7407 18.7551 33.729 18.859C33.719 18.9461 33.7121 19.0333 33.7041 19.1206C33.6968 19.2025 33.6879 19.284 33.6822 19.3663C33.6702 19.5383 33.6616 19.7104 33.6572 19.8826C33.6545 19.9865 33.6532 20.0909 33.6532 20.1954V20.3681C33.6509 20.3687 33.6489 20.3697 33.6467 20.3703C33.5801 20.3899 33.5154 20.4138 33.4518 20.4398C33.4312 20.4482 33.4109 20.4569 33.3906 20.466C33.3345 20.4912 33.2794 20.5184 33.2262 20.5487C33.2184 20.5532 33.2098 20.5563 33.202 20.5609L26.6807 14.4518C26.2584 14.0564 25.6014 14.057 25.1803 14.4539L4.20903 34.2099C3.97637 34.4292 3.67393 34.5459 3.35255 34.5352C3.03297 34.5256 2.7364 34.3922 2.51713 34.1595C2.29786 33.9268 2.18236 33.6228 2.19183 33.3032C2.20146 32.9836 2.33485 32.6869 2.56751 32.4678L25.1067 11.2347C25.3367 11.0181 25.6321 10.9097 25.9274 10.9097C26.2217 10.9097 26.5162 11.0172 26.7459 11.2324L33.875 17.9107C33.8678 17.9471 33.8627 17.9835 33.8559 18.0197ZM34.9754 28.1878C34.7712 28.1878 34.6051 28.0217 34.6051 27.8177V25.592H35.4127V28.1878H34.9754ZM34.3838 23.0596V22.4818H34.7491C35.3542 22.4818 35.8448 21.9912 35.8448 21.386V20.1951C35.8448 20.1092 35.8459 20.0237 35.8481 19.9381C35.8523 19.7711 35.8619 19.6041 35.875 19.4371C35.8783 19.3946 35.8832 19.3523 35.8871 19.3097C35.8988 19.1812 35.9125 19.0527 35.9295 18.9244C35.935 18.8826 35.9411 18.841 35.9472 18.7992C35.9671 18.6635 35.9895 18.5283 36.015 18.3936C36.0208 18.3633 36.0262 18.3331 36.032 18.3029C36.065 18.1378 36.1015 17.9732 36.143 17.8097C36.1432 17.8088 36.1433 17.8079 36.1435 17.807C36.5441 16.2371 37.3391 14.7888 38.4724 13.6018C39.7933 12.2185 41.4739 11.288 43.2973 10.9112V13.8569C43.2973 15.5954 44.7117 17.0097 46.4502 17.0097H47.4845C49.223 17.0097 50.6373 15.5952 50.6373 13.8569V10.9115C52.4604 11.2883 54.1414 12.2188 55.4622 13.6021C57.0943 15.3113 58.0264 17.5615 58.0867 19.9382C58.0888 20.0237 58.0899 20.1092 58.0899 20.1951V21.386C58.0899 21.9912 58.5805 22.4818 59.1856 22.4818H59.5511V23.0596H34.3838ZM37.6457 30.5603C37.6438 30.5435 37.642 30.5267 37.64 30.5097C37.6301 30.4178 37.6223 30.3263 37.6164 30.2352C37.6155 30.2206 37.6143 30.206 37.6134 30.1914C37.6075 30.0863 37.6042 29.9816 37.6042 29.8777V25.592H56.3303V29.8549C56.3303 29.9598 56.327 30.0657 56.321 30.1719C56.3202 30.1841 56.3192 30.1962 56.3184 30.2084C56.3126 30.3017 56.3046 30.3954 56.2944 30.4894C56.2926 30.5059 56.2907 30.5224 56.2888 30.539C56.2768 30.642 56.2626 30.7453 56.2455 30.8491C56.2453 30.8497 56.2453 30.8501 56.2452 30.8507C55.8567 33.1946 54.1796 35.6965 52.124 37.196C52.1093 37.2067 52.0945 37.2177 52.0798 37.2282C52.0147 37.2751 51.9488 37.3201 51.8829 37.3649C51.8467 37.3894 51.8109 37.4149 51.7745 37.4388C51.7553 37.4514 51.7359 37.4631 51.7165 37.4756C51.6497 37.5188 51.5828 37.5618 51.5151 37.603C51.5116 37.6051 51.5086 37.6078 51.5052 37.6099C50.8943 37.9814 50.2595 38.2604 49.6224 38.4189L49.5078 38.4474C47.1704 39.0287 46.6339 39.0274 44.2879 38.4359C43.6569 38.2768 43.0281 37.999 42.4228 37.6299C42.4214 37.629 42.4202 37.628 42.4188 37.6272C42.3946 37.6125 42.371 37.5967 42.3468 37.5816C42.2752 37.537 42.2038 37.492 42.133 37.4449C42.1154 37.4334 42.0981 37.421 42.0806 37.4093C39.8117 35.875 37.9416 33.0908 37.6457 30.5603ZM41.8286 43.1614C42.5005 42.9064 42.9446 42.269 42.9446 41.5419L42.9448 40.3106C43.2119 40.4087 43.4814 40.4925 43.7524 40.5609C45.0984 40.9002 46.0052 41.0695 46.9134 41.0695C47.8113 41.0695 48.7106 40.9041 50.037 40.5743L50.1516 40.5457C50.433 40.4758 50.7126 40.3887 50.9899 40.2869L50.9901 41.5419C50.9901 42.2692 51.434 42.9067 52.1061 43.1616L53.8619 44.043C53.8409 44.0591 53.8203 44.0761 53.7992 44.0921C53.7509 44.1283 53.7019 44.1634 53.653 44.1988C53.5609 44.2658 53.4681 44.3315 53.3741 44.3954C53.3216 44.4312 53.2689 44.4664 53.2159 44.5013C53.1201 44.5641 53.0232 44.6252 52.9256 44.6851C52.8758 44.7156 52.8263 44.7467 52.7763 44.7765C52.657 44.8472 52.5361 44.9152 52.4144 44.9813C52.3857 44.997 52.3576 45.0137 52.3287 45.029C52.1779 45.1093 52.0251 45.1859 51.8706 45.2593C51.8293 45.279 51.7871 45.2968 51.7455 45.3161C51.6315 45.3686 51.5167 45.4199 51.4011 45.4684C51.3454 45.4919 51.2892 45.514 51.2331 45.5366C51.1283 45.5785 51.023 45.6191 50.917 45.6581C50.8585 45.6796 50.7998 45.7008 50.7409 45.7212C50.6308 45.7594 50.52 45.7955 50.4087 45.8304C50.3554 45.8471 50.3023 45.8646 50.2488 45.8805C50.1022 45.9241 49.9545 45.9647 49.8059 46.0023C49.788 46.0068 49.7704 46.0123 49.7525 46.0166C49.5853 46.0581 49.4167 46.0953 49.2472 46.1293C49.1986 46.139 49.1496 46.147 49.1007 46.1562C48.979 46.1789 48.8571 46.2004 48.7342 46.2192C48.6736 46.2285 48.6128 46.2368 48.5521 46.2451C48.4379 46.2607 48.3235 46.2747 48.2086 46.287C48.1468 46.2936 48.0848 46.3001 48.0227 46.3058C47.901 46.3168 47.7788 46.3254 47.6562 46.3326C47.603 46.3357 47.5499 46.3398 47.4963 46.3422C47.3205 46.3502 47.1443 46.355 46.9671 46.355C46.79 46.355 46.6137 46.35 46.4379 46.3422C46.3845 46.3398 46.3316 46.3357 46.2785 46.3326C46.1558 46.3254 46.0333 46.3168 45.9114 46.3058C45.8494 46.3003 45.7876 46.2936 45.7259 46.2872C45.6109 46.2748 45.4963 46.2609 45.382 46.2452C45.3214 46.2369 45.2606 46.2287 45.2002 46.2193C45.0773 46.2005 44.955 46.179 44.8332 46.1562C44.7845 46.147 44.7355 46.139 44.687 46.1294C44.5174 46.0954 44.3488 46.0583 44.1816 46.0166C44.1641 46.0123 44.147 46.007 44.1295 46.0026C43.9805 45.9649 43.8324 45.9241 43.6853 45.8804C43.632 45.8646 43.5794 45.8471 43.5265 45.8306C43.4147 45.7955 43.3034 45.7593 43.1929 45.721C43.1346 45.7006 43.0764 45.6796 43.0183 45.6584C42.9117 45.6193 42.8057 45.5784 42.7002 45.5361C42.6447 45.5139 42.5892 45.4919 42.5342 45.4687C42.417 45.4196 42.3012 45.3678 42.1859 45.3147C42.1456 45.2962 42.1048 45.2788 42.0648 45.2597C41.9099 45.1862 41.7567 45.1093 41.6051 45.0287C41.578 45.0143 41.5517 44.9986 41.5248 44.984C41.4011 44.917 41.2786 44.8479 41.1575 44.7762C41.1083 44.747 41.0599 44.7166 41.0112 44.6867C40.9124 44.6261 40.8142 44.5643 40.7172 44.5005C40.6653 44.4665 40.6139 44.4319 40.5626 44.3971C40.4672 44.3322 40.3729 44.2655 40.2794 44.1975C40.2317 44.1629 40.1839 44.1288 40.1368 44.0934C40.1153 44.0773 40.0944 44.0599 40.0731 44.0436L41.8286 43.1614ZM19.9127 67.8015C19.6937 67.8015 19.4904 67.7134 19.3402 67.5533C19.1892 67.3924 19.1137 67.1823 19.1278 66.9619C19.1283 66.9546 19.1287 66.9474 19.129 66.9402L19.6606 54.7835C19.7779 52.9787 20.5282 51.3238 21.721 50.0694C21.7324 50.0585 21.7445 50.0485 21.7554 50.037C22.457 49.3079 23.3082 48.7234 24.2376 48.3277C24.257 48.3194 24.2766 48.3113 24.2961 48.3033C24.4198 48.2519 24.5444 48.203 24.6705 48.1583L26.3234 47.5742V67.8015H19.9127ZM27.0011 45.0105L23.9405 46.0923C23.8256 46.1329 23.7119 46.1754 23.5994 46.2199C23.5636 46.2341 23.5287 46.2497 23.4932 46.2642C23.4654 46.2756 23.4377 46.2872 23.41 46.2989C23.3618 46.3192 23.3129 46.3385 23.2651 46.3595C23.2123 46.3827 23.1607 46.4078 23.1083 46.4318C23.0515 46.458 22.9941 46.4833 22.938 46.5105C22.885 46.5362 22.8331 46.5636 22.7808 46.5901C22.7265 46.6176 22.6715 46.6442 22.6178 46.6728C22.5684 46.6989 22.5202 46.7269 22.4713 46.7538C22.416 46.7845 22.36 46.8143 22.3053 46.8459C22.2571 46.8737 22.2102 46.9033 22.1625 46.9319C22.1278 46.9528 22.0929 46.9734 22.0585 46.9946L22.0428 35.7985L29.8783 35.7875L29.8898 43.9848L27.0542 44.9869C27.0357 44.9934 27.019 45.003 27.0011 45.0105ZM28.5149 67.8015V46.7997L35.7637 44.2378L36.6025 48.3543C36.9162 49.894 37.859 51.257 39.1889 52.0938L45.8715 56.2987V67.8015H28.5149ZM40.3561 50.239C39.5301 49.7194 38.9448 48.8728 38.7499 47.9168L38.2321 45.375C38.273 45.4095 38.3124 45.4462 38.3536 45.48C40.7701 47.4661 43.7818 48.5462 46.9676 48.5462C47.8502 48.5462 48.719 48.4615 49.566 48.2994C51.8282 47.8664 53.9299 46.8675 55.7029 45.375L55.1849 47.9168C54.9903 48.8728 54.405 49.7192 53.5791 50.2388L46.9676 54.399L40.3561 50.239ZM65.4199 67.8015H48.0632V56.2988L54.7459 52.0939C56.0761 51.257 57.0188 49.894 57.3322 48.3544L58.1711 44.2378L65.4199 46.7997V67.8015Z" fill="#E56033"/>
</g>
<defs>
<clipPath id="clip0_136_1534">
<rect width="77" height="77" fill="white"/>
</clipPath>
</defs>
</svg>
