<svg width="71" height="71" viewBox="0 0 71 71" fill="none" xmlns="http://www.w3.org/2000/svg">
<g clip-path="url(#clip0_136_1542)">
<path d="M62.8232 50.1053C62.4338 49.9439 61.9856 50.033 61.6874 50.331L50.2988 61.7196C50.0008 62.0178 49.9117 62.466 50.0731 62.8554C50.2342 63.2449 50.6145 63.4987 51.0359 63.4987H62.4245C63.0001 63.4987 63.4666 63.0322 63.4666 62.4565V51.0679C63.4665 50.6465 63.2126 50.2666 62.8232 50.1053ZM53.5514 61.4146L61.3821 53.5839V61.4146H53.5514Z" fill="#E56033"/>
<path d="M70.3568 33.4015C69.9674 33.2401 69.5193 33.3293 69.2211 33.6273L66.1 36.7484V15.5273C66.1 14.9516 65.6334 14.4851 65.0579 14.4851H57.0508L59.9574 11.5786C59.9578 11.5782 59.9582 11.5776 59.9586 11.5772L62.7593 8.77656C63.3593 8.17652 63.6898 7.37833 63.6898 6.52965C63.6898 5.68098 63.3593 4.88306 62.7593 4.28275L59.5207 1.0442C58.9207 0.444164 58.1225 0.113708 57.2738 0.113708C56.4251 0.113708 55.6271 0.444164 55.0269 1.0442L52.2249 3.84621L48.8391 7.23203L41.5861 14.485H9.23834V4.17542C9.23834 3.59979 8.77171 3.13329 8.19622 3.13329C3.67689 3.13357 0 6.81019 0 11.3298V55.592C0 55.669 0.00887502 55.7438 0.0246836 55.8159C0.168625 57.7336 0.998301 59.5154 2.38488 60.8681C3.86701 62.3136 5.82354 63.1097 7.89419 63.1097H39.7386L33.7411 69.1071C33.4431 69.4053 33.354 69.8533 33.5153 70.2428C33.6765 70.6322 34.0566 70.8861 34.4781 70.8861H69.958C70.5335 70.8861 71.0001 70.4197 71.0001 69.844V34.3643C71.0001 33.9429 70.7461 33.5628 70.3568 33.4015ZM56.501 2.51814C56.927 2.09187 57.6211 2.09187 58.0471 2.51814L61.2857 5.75683C61.712 6.18297 61.712 6.87675 61.2857 7.30303L59.2208 9.36813L54.4357 4.58325L56.501 2.51814ZM52.9619 6.05706L57.7468 10.8418L55.8347 12.754L51.0501 7.96921L52.9619 6.05706ZM68.9162 46.0741H66.9935C66.4179 46.0741 65.9514 46.5406 65.9514 47.1162C65.9514 47.6918 66.4179 48.1583 66.9935 48.1583H68.9162V51.2987H66.9935C66.4179 51.2987 65.9514 51.7652 65.9514 52.3408C65.9514 52.9165 66.4179 53.3829 66.9935 53.3829H68.9162V56.5232H66.9935C66.4179 56.5232 65.9514 56.9897 65.9514 57.5653C65.9514 58.1409 66.4179 58.6074 66.9935 58.6074H68.9162V61.7478H66.9935C66.4179 61.7478 65.9514 62.2144 65.9514 62.7899C65.9514 63.3655 66.4179 63.832 66.9935 63.832H68.9162V68.8023H36.9938L47.5202 58.2761C47.9272 57.869 47.9272 57.2093 47.5202 56.8023C47.4734 56.7556 47.4232 56.7151 47.3707 56.679C46.9649 56.4011 46.4066 56.4421 46.0462 56.8023L41.8228 61.0257H7.89433C4.73371 61.0257 2.18936 58.5582 2.08923 55.4033C2.0952 55.2052 2.11059 55.0089 2.13527 54.8147C2.13541 54.8136 2.13555 54.8125 2.13569 54.8114C2.14734 54.7192 2.16134 54.6274 2.17729 54.5361C2.17909 54.5257 2.18104 54.5153 2.18284 54.5049C2.1974 54.4235 2.21376 54.3426 2.23165 54.2618C2.23664 54.2394 2.24191 54.2169 2.24718 54.1946C2.26299 54.1264 2.28005 54.0586 2.29835 53.991C2.30834 53.9544 2.31874 53.9182 2.32941 53.8817C2.34467 53.8288 2.36048 53.7759 2.37726 53.7237C2.39404 53.6714 2.41192 53.6197 2.43009 53.5679C2.44271 53.5317 2.45519 53.4955 2.46878 53.4596C2.49416 53.3914 2.52106 53.3239 2.54879 53.2569C2.5567 53.2376 2.56446 53.2181 2.57265 53.1988C2.60828 53.1156 2.64531 53.0334 2.68442 52.9521C2.68608 52.9486 2.6876 52.9452 2.68927 52.9417C3.50438 51.2549 5.07207 49.9973 6.95344 49.607C6.95871 49.6059 6.96398 49.6047 6.96925 49.6036C7.0555 49.586 7.14259 49.5709 7.23023 49.5568C7.24479 49.5545 7.25935 49.5516 7.27419 49.5494C7.35337 49.5373 7.43338 49.5279 7.5134 49.5188C7.53586 49.5163 7.55819 49.5129 7.58079 49.5107C7.65803 49.5029 7.73596 49.4978 7.8139 49.4929C7.83858 49.4914 7.86327 49.4888 7.88795 49.4875C7.99001 49.4824 8.09291 49.4797 8.19622 49.4797C8.77171 49.4797 9.23834 49.0132 9.23834 48.4376V40.8815C9.23834 40.3059 8.77171 39.8394 8.19622 39.8394C7.62073 39.8394 7.1541 40.3059 7.1541 40.8815V47.4611C5.39435 47.6837 3.76093 48.4685 2.47294 49.7263C2.33746 49.8586 2.20905 49.9962 2.08397 50.1359V11.3298C2.08397 8.31492 4.27859 5.80259 7.15396 5.30643V15.5273V36.7132V36.7133C7.15396 37.2888 7.62059 37.7554 8.19608 37.7554C8.77157 37.7554 9.2382 37.2888 9.2382 36.7133V36.7132V16.5694H39.502L33.741 22.3304C33.334 22.7375 33.334 23.3972 33.741 23.8042C34.148 24.211 34.8078 24.211 35.2147 23.8042L42.7547 16.2642C42.755 16.2639 42.7551 16.2636 42.7554 16.2635L49.576 9.44288L54.3606 14.2278L53.7992 14.7891C53.7988 14.7895 53.7983 14.7899 53.7979 14.7904L32.7851 35.8033L28.0004 31.0186L32.1423 26.8767C32.5493 26.4696 32.5493 25.8099 32.1423 25.4029C31.7353 24.9961 31.0755 24.9961 30.6686 25.4029L25.7897 30.2817C25.7636 30.3078 25.7392 30.3354 25.7163 30.3636C25.7087 30.3731 25.7019 30.3832 25.6947 30.393C25.68 30.4126 25.6656 30.4323 25.6521 30.4528C25.6445 30.4647 25.6376 30.4769 25.6304 30.4893C25.6188 30.5087 25.6078 30.5284 25.5976 30.5485C25.591 30.5615 25.585 30.5747 25.5789 30.5883C25.5696 30.6087 25.561 30.6295 25.5531 30.6503C25.5503 30.6576 25.5467 30.6646 25.5441 30.6719L23.5138 36.4233L22.1296 40.3449C22.1113 40.397 22.0981 40.45 22.0883 40.5034H18.6226C18.0471 40.5034 17.5804 40.9698 17.5804 41.5455C17.5804 42.1211 18.0471 42.5876 18.6226 42.5876H47.4822C48.0578 42.5876 48.5243 42.1211 48.5243 41.5455C48.5243 40.9698 48.0578 40.5034 47.4822 40.5034H26.7766L33.132 38.2599C33.1372 38.258 33.1422 38.2553 33.1475 38.2534C33.1722 38.2443 33.1964 38.234 33.2204 38.223C33.23 38.2186 33.2396 38.2144 33.2489 38.2099C33.2738 38.1974 33.2984 38.1836 33.3225 38.1689C33.3303 38.1642 33.3383 38.1599 33.3459 38.1551C33.371 38.139 33.3954 38.1214 33.4194 38.1028C33.4254 38.0982 33.4316 38.0942 33.4375 38.0895C33.4664 38.0662 33.4949 38.0411 33.5218 38.0142L54.9666 16.5695H64.0156V38.8328L49.1089 53.7396C48.7019 54.1468 48.7019 54.8064 49.1089 55.2134C49.1343 55.2388 49.1608 55.2626 49.1881 55.285C49.3792 55.4407 49.6126 55.5186 49.8458 55.5186C50.0791 55.5186 50.3126 55.4407 50.5036 55.285C50.5309 55.2628 50.5574 55.2388 50.5827 55.2134C50.5832 55.213 50.5827 55.2134 50.5832 55.213L68.9162 36.8799V46.0741ZM30.8791 36.8446L27.894 37.8984L25.9052 35.9096L26.959 32.9245L30.8791 36.8446Z" fill="#E56033"/>
</g>
<defs>
<clipPath id="clip0_136_1542">
<rect width="71" height="71" fill="white"/>
</clipPath>
</defs>
</svg>
