<svg width="71" height="71" viewBox="0 0 71 71" fill="none" xmlns="http://www.w3.org/2000/svg">
<path d="M62.2391 4.75284H57.7924V3.16269C57.7924 1.41875 56.3737 0 54.6298 0H54.1522C52.4084 0 50.9896 1.41875 50.9896 3.16269V4.75284H20.0103V3.16269C20.0103 1.41875 18.5916 0 16.8476 0H16.37C14.6261 0 13.2074 1.41875 13.2074 3.16269V4.75284H8.76084C5.88964 4.75284 3.55371 7.08877 3.55371 9.95997V65.7998C3.55371 68.6673 5.88645 71 8.75391 71H62.2463C65.1138 71 67.4465 68.6673 67.4465 65.7998V9.95997C67.4464 7.08877 65.1104 4.75284 62.2391 4.75284ZM53.0697 3.16269C53.0697 2.56571 53.5553 2.08008 54.1523 2.08008H54.6299C55.2269 2.08008 55.7125 2.56571 55.7125 3.16269V4.75284H53.0697V3.16269ZM15.2876 3.16269C15.2876 2.56571 15.7732 2.08008 16.3702 2.08008H16.8478C17.4447 2.08008 17.9304 2.56571 17.9304 3.16269V4.75284H15.2877L15.2876 3.16269ZM65.3663 65.7998C65.3663 67.5203 63.9667 68.9199 62.2462 68.9199H8.75377C7.03327 68.9199 5.63365 67.5203 5.63365 65.7998V65.7933C6.50506 66.4499 7.58823 66.8398 8.76084 66.8398H50.9286C52.3195 66.8398 53.6272 66.2982 54.6106 65.3146L65.3663 54.5589V65.7998ZM53.5494 63.4342C53.6309 63.0976 53.6753 62.7467 53.6753 62.3854V55.443C53.6753 54.1339 54.7404 53.0688 56.0496 53.0688H62.9919C63.3532 53.0688 63.7042 53.0244 64.0407 52.9428L53.5494 63.4342ZM65.3663 19.6157H21.0504C20.476 19.6157 20.0103 20.0814 20.0103 20.6557C20.0103 21.2301 20.476 21.6958 21.0504 21.6958H65.3663V48.6145C65.3663 49.9237 64.3011 50.9888 62.9919 50.9888H56.0496C53.5935 50.9888 51.5952 52.9871 51.5952 55.4431V62.3856C51.5952 63.6948 50.5301 64.7599 49.221 64.7599H8.76084C7.03659 64.7599 5.63379 63.3571 5.63379 61.6327V21.6958H16.8902C17.4646 21.6958 17.9302 21.2301 17.9302 20.6557C17.9302 20.0814 17.4646 19.6157 16.8902 19.6157H5.63365V9.95997C5.63365 8.23572 7.03645 6.83292 8.7607 6.83292H13.2074V9.89091C13.2074 11.6348 14.6261 13.0536 16.37 13.0536C16.9444 13.0536 17.4101 12.5879 17.4101 12.0136C17.4101 11.4392 16.9444 10.9735 16.37 10.9735C15.7731 10.9735 15.2874 10.4879 15.2874 9.89091V6.83292H50.9896V9.89091C50.9896 11.6348 52.4084 13.0536 54.1523 13.0536C54.7267 13.0536 55.1923 12.5879 55.1923 12.0136C55.1923 11.4392 54.7267 10.9735 54.1523 10.9735C53.5553 10.9735 53.0697 10.4879 53.0697 9.89091V6.83292H62.2392C63.9635 6.83292 65.3663 8.23572 65.3663 9.95997V19.6157Z" fill="#E56033"/>
<g clip-path="url(#clip0_136_1554)">
<path d="M39.3881 29.6352L39.3882 29.6351C40.0336 29.2332 40.8751 29.2383 41.5156 29.6485C42.1635 30.0633 42.5195 30.8333 42.4168 31.5952L42.2757 32.6416C45.2847 35.1319 47.5034 38.8565 48.7174 43.4359C49.3763 45.9214 49.5827 48.0379 49.6476 49.1414C51.0786 49.2835 52.2 50.4933 52.2 51.9615C52.2 53.5247 50.9285 54.7962 49.3653 54.7962H21.7681C21.3091 54.7962 20.937 54.424 20.937 53.965C20.937 53.506 21.3091 53.1339 21.7681 53.1339H49.3654C50.0117 53.1339 50.5378 52.6078 50.5378 51.9615C50.5378 51.3153 50.0117 50.7891 49.3654 50.7891H40.9551C40.496 50.7891 40.124 50.4169 40.124 49.958C40.124 49.499 40.496 49.1268 40.9551 49.1268H47.9795C47.9098 48.064 47.7048 46.0918 47.1021 43.8296C46.37 41.0816 44.9023 37.406 42.0079 34.6299L40.9211 42.6938C40.7863 43.6937 39.9286 44.4214 38.9463 44.4214C37.7553 44.4214 36.8095 43.3444 36.969 42.161L38.3286 32.0724C37.5038 31.6739 36.6249 31.346 35.7023 31.0919L34.8114 41.345C34.6156 43.5978 32.7611 45.2981 30.4997 45.2981C28.2383 45.2981 26.3838 43.5978 26.1881 41.3449L25.2972 31.0919C24.3744 31.346 23.4955 31.6739 22.6708 32.0723L23.0506 34.8903C23.112 35.3452 22.7929 35.7637 22.3381 35.825C22.3381 35.825 22.338 35.825 22.338 35.825L22.3113 35.6268C21.9663 35.6735 21.648 35.4311 21.6015 35.0857L39.3881 29.6352ZM39.3881 29.6352C39.0871 29.8227 38.841 30.0889 38.6769 30.4016M39.3881 29.6352L38.6769 30.4016M21.4033 35.1124L20.8874 31.2847L20.8874 31.2847C20.8616 31.0935 20.6662 30.9606 20.4784 31.0072L21.4033 35.1124ZM21.4033 35.1124C21.4033 35.1124 21.4033 35.1124 21.4033 35.1124L21.4033 35.1124ZM38.6769 30.4016C37.7817 29.9965 36.836 29.6639 35.8484 29.4095L35.9292 28.4786C36.0342 27.2717 35.0546 26.2041 33.8438 26.2041H27.1556C25.9447 26.2041 24.965 27.2716 25.07 28.4787L25.1509 29.4095C24.1632 29.664 23.2174 29.9965 22.3222 30.4016C21.9383 29.673 21.1204 29.2409 20.2924 29.3528C20.2923 29.3528 20.2923 29.3528 20.2923 29.3528L20.3191 29.551L38.6769 30.4016ZM21.7257 42.4715L21.7257 42.4716C21.75 42.6523 21.9174 42.7801 22.0988 42.7559L21.7257 42.4715ZM21.7257 42.4715L20.23 31.3734M21.7257 42.4715L20.23 31.3734M20.23 31.3734C20.23 31.3734 20.23 31.3733 20.23 31.3733M20.23 31.3734L20.23 31.3733M20.23 31.3733C20.208 31.2094 20.3182 31.0471 20.4784 31.0072L20.23 31.3733ZM38.9013 42.756C39.0821 42.7799 39.2494 42.6523 39.2738 42.4715L40.7695 31.3731C40.7939 31.1925 40.6586 31.0196 40.4775 30.9993C40.4775 30.9993 40.4775 30.9993 40.4775 30.9993M38.9013 42.756L40.4998 30.8006L40.4775 30.9993M38.9013 42.756C38.7217 42.73 38.5924 42.5602 38.6163 42.3828L40.112 31.2846M38.9013 42.756L40.112 31.2846M40.4775 30.9993C40.3021 30.9797 40.1356 31.1097 40.112 31.2846M40.4775 30.9993L40.112 31.2846M18.7236 32.6417C15.7146 35.132 13.4959 38.8566 12.282 43.4359C11.6231 45.9214 11.4167 48.0379 11.3518 49.1414C9.92114 49.2838 8.8 50.4935 8.8 51.9613C8.8 53.5246 10.0715 54.796 11.6347 54.796H19.2437C19.7028 54.796 20.0749 54.4238 20.0749 53.9649C20.0749 53.5059 19.7028 53.1337 19.2437 53.1337H11.6347C10.9884 53.1337 10.4623 52.6076 10.4623 51.9613C10.4623 51.315 10.9884 50.7889 11.6347 50.7889H38.4306C38.8897 50.7889 39.2618 50.4168 39.2618 49.9578C39.2618 49.4988 38.8897 49.1267 38.4306 49.1267H13.02C13.0897 48.0637 13.2947 46.0915 13.8973 43.8295C14.6294 41.0815 16.0972 37.4059 18.9915 34.6298L20.0784 42.6935C20.2131 43.6936 21.0708 44.4213 22.0532 44.4212C23.2446 44.4212 24.19 43.3438 24.0305 42.1608L23.3899 37.4073C23.3899 37.4073 23.3899 37.4073 23.3899 37.4073C23.3286 36.9524 22.91 36.6332 22.4551 36.6947C22.0003 36.756 21.6812 37.1745 21.7426 37.6294L22.3832 42.3828L22.3832 42.3829C22.4072 42.5606 22.2766 42.7318 22.0989 42.7559L18.7236 32.6417ZM33.1554 41.2009C33.0347 42.5898 31.8938 43.6358 30.4997 43.6358C29.1055 43.6358 27.9647 42.5898 27.8441 41.2009L26.7261 28.3347C26.7047 28.0877 26.9077 27.8663 27.1557 27.8663H33.8438C34.0918 27.8663 34.2947 28.0876 34.2733 28.3347L33.1554 41.2009Z" fill="#E56033" stroke="#E56033" stroke-width="0.4"/>
</g>
<defs>
<clipPath id="clip0_136_1554">
<rect width="43" height="33" fill="white" transform="translate(9 24)"/>
</clipPath>
</defs>
</svg>
