<svg width="71" height="71" viewBox="0 0 71 71" fill="none" xmlns="http://www.w3.org/2000/svg">
<g clip-path="url(#clip0_136_1564)">
<path d="M1.18359 71.1371H57.9835C58.6373 71.1371 59.1671 70.6074 59.1671 69.9541V59.3039H67.45C68.1038 59.3039 68.6336 58.7742 68.6336 58.1209V46.2872C68.6336 45.6339 68.1038 45.1041 67.45 45.1041H59.1671V34.454C59.1671 33.8001 58.6373 33.2704 57.9835 33.2704H55.8118C55.9787 32.4968 55.8021 31.6886 55.3281 31.0549L49.9811 23.9273L52.4501 22.0753C53.547 21.2541 54.1597 19.9378 54.0822 18.5695L53.9636 16.4385C53.9311 15.8605 54.19 15.3047 54.6532 14.9575L57.1216 13.106L58.1606 14.4906C58.3486 14.7414 58.6286 14.9077 58.9395 14.9521C58.9948 14.9597 59.0506 14.964 59.1069 14.9635C59.3631 14.964 59.6123 14.8806 59.8171 14.7267L69.5805 7.40257C71.1481 6.22656 71.4661 4.00184 70.2901 2.43366L69.6325 1.55612C68.4549 -0.00990297 66.2312 -0.326791 64.6625 0.84759L54.9002 8.17122C54.3774 8.56341 54.2713 9.30552 54.6635 9.82825L55.7019 11.2128L53.2334 13.0648C52.1365 13.886 51.5233 15.2018 51.6013 16.5701L51.7194 18.7011C51.7524 19.2791 51.4935 19.8354 51.0303 20.1821L48.5619 22.0341L43.2143 14.9066C42.6548 14.1488 41.7458 13.7311 40.806 13.7999C39.9095 13.8649 39.1083 14.3849 38.6831 15.1774L28.9598 33.2704H1.18359C0.529772 33.2704 0 33.8001 0 34.454V46.2872C0 46.941 0.529772 47.4708 1.18359 47.4708H9.46656V56.9373H1.18359C0.529772 56.9373 0 57.4671 0 58.1209V69.9541C0 70.6074 0.529772 71.1371 1.18359 71.1371ZM66.0828 2.74025C66.605 2.34807 67.3466 2.4537 67.7393 2.97643L68.3969 3.85396C68.7885 4.37669 68.6824 5.11772 68.1602 5.50991L59.3431 12.1245L57.2657 9.35427L66.0828 2.74025ZM21.3003 59.3039H37.8668V68.7705H21.3003V59.3039ZM30.7668 47.4708H47.3333V56.9373H30.7668V47.4708ZM56.8004 68.7705H40.2334V59.3039H56.8004V68.7705ZM66.267 56.9373H49.7V47.4708H66.267V56.9373ZM56.8004 45.1041H40.2334V38.2133L52.3456 35.637H56.8004V45.1041ZM40.7686 16.2987C40.8087 16.2158 40.8921 16.1628 40.9842 16.1601L41.0075 16.159C41.1331 16.1611 41.2496 16.2234 41.3211 16.3263L46.6676 23.4539L41.7859 27.1162C41.2632 27.5084 41.157 28.25 41.5492 28.7733C41.9413 29.296 42.6829 29.4016 43.2062 29.01L48.0879 25.3476L53.4349 32.4752C53.52 32.5792 53.5449 32.7195 53.4999 32.8457C53.4717 32.9334 53.3975 32.9979 53.3065 33.0142L29.8303 38.0064C29.6846 38.0291 29.5383 37.9668 29.4543 37.8455C29.3601 37.7317 29.3411 37.5736 29.4056 37.4403L40.7686 16.2987ZM27.5617 39.2658C28.1922 40.133 29.2745 40.5463 30.3227 40.321L37.8668 38.7165V45.1041H21.3003V35.637H27.6873L27.3206 36.3195C26.8136 37.2637 26.9084 38.417 27.5617 39.2658ZM2.36664 40.3708H4.73328C5.3871 40.3708 5.91687 39.8411 5.91687 39.1872C5.91687 38.534 5.3871 38.0042 4.73328 38.0042H2.36664V35.637H18.9337V45.1041H2.36664V40.3708ZM11.8332 47.4708H28.4002V56.9373H11.8332V47.4708ZM2.36664 59.3039H18.9337V68.7705H2.36664V59.3039Z" fill="#E56033"/>
<path d="M15.3836 39.1873C15.3836 38.534 14.8538 38.0042 14.2 38.0042H9.46674C8.81346 38.0042 8.28369 38.534 8.28369 39.1873C8.28369 39.8411 8.81346 40.3709 9.46674 40.3709H14.2C14.8538 40.3709 15.3836 39.8411 15.3836 39.1873Z" fill="#E56033"/>
</g>
<defs>
<clipPath id="clip0_136_1564">
<rect width="71" height="71" fill="white"/>
</clipPath>
</defs>
</svg>
