<svg width="71" height="71" viewBox="0 0 71 71" fill="none" xmlns="http://www.w3.org/2000/svg">
<g clip-path="url(#clip0_136_1572)">
<path d="M2.4615 29.5833H3.5975V68.6333C3.5975 69.9404 4.65709 71 5.96416 71H46.1975C47.5046 71 48.5642 69.9404 48.5642 68.6333V47.8658C48.5642 47.2123 48.0344 46.6825 47.3808 46.6825C46.7273 46.6825 46.1975 47.2123 46.1975 47.8658V68.6333H42.6416V57.9833C42.6416 54.0621 39.4628 50.8833 35.5416 50.8833C31.6204 50.8833 28.4416 54.0621 28.4416 57.9833V68.6333H5.96416V29.5833H23.1107C23.7642 29.5833 24.294 29.0535 24.294 28.4C24.294 27.7465 23.7642 27.2167 23.1107 27.2167H4.80331C4.79503 27.2167 4.78911 27.2167 4.78083 27.2167C4.77255 27.2167 4.76663 27.2167 4.75835 27.2167H2.45558L26.0749 9.75067L33.9204 15.5608C34.4459 15.9497 35.187 15.839 35.5759 15.3135C35.9648 14.7881 35.854 14.0469 35.3286 13.658L27.4843 7.85378C26.6459 7.23844 25.5051 7.23844 24.6667 7.85378L1.04741 25.3233C0.233331 25.9339 -0.0993329 26.9965 0.221253 27.9623C0.541839 28.9281 1.4439 29.5808 2.4615 29.5833ZM30.8082 57.9833C30.8082 56.2923 31.7104 54.7297 33.1749 53.8842C34.6394 53.0386 36.4438 53.0386 37.9082 53.8842C39.3727 54.7297 40.2749 56.2923 40.2749 57.9833V68.6333H30.8082V57.9833Z" fill="#E56033"/>
<path d="M10.6916 65.0833H22.525C23.1785 65.0833 23.7083 64.5535 23.7083 63.9V52.0666C23.7083 51.4131 23.1785 50.8833 22.525 50.8833H10.6916C10.0381 50.8833 9.5083 51.4131 9.5083 52.0666V63.9C9.5083 64.5535 10.0381 65.0833 10.6916 65.0833ZM11.875 59.1666H15.425V62.7166H11.875V59.1666ZM17.7916 62.7166V59.1666H21.3416V62.7166H17.7916ZM21.3416 56.8H17.7916V53.25H21.3416V56.8ZM15.425 53.25V56.8H11.875V53.25H15.425Z" fill="#E56033"/>
<path d="M23.7083 34.3166C23.7083 33.6631 23.1785 33.1333 22.525 33.1333H10.6916C10.0381 33.1333 9.5083 33.6631 9.5083 34.3166V46.15C9.5083 46.8035 10.0381 47.3333 10.6916 47.3333H22.525C23.1785 47.3333 23.7083 46.8035 23.7083 46.15V34.3166ZM21.3416 39.05H17.7916V35.5H21.3416V39.05ZM15.425 35.5V39.05H11.875V35.5H15.425ZM11.875 41.4166H15.425V44.9666H11.875V41.4166ZM17.7916 44.9666V41.4166H21.3416V44.9666H17.7916Z" fill="#E56033"/>
<path d="M36.7248 63.9C37.3784 63.9 37.9082 63.3702 37.9082 62.7167V60.35C37.9082 59.6965 37.3784 59.1667 36.7248 59.1667C36.0713 59.1667 35.5415 59.6965 35.5415 60.35V62.7167C35.5415 63.0305 35.6662 63.3315 35.8881 63.5534C36.11 63.7753 36.411 63.9 36.7248 63.9Z" fill="#E56033"/>
<path d="M37.2055 17.0601L36.3677 17.8979C36.0564 18.2108 35.8402 18.6055 35.744 19.0363L28.5387 20.9355C28.3353 20.9886 28.1497 21.0953 28.0015 21.2444C26.5306 22.7141 26.0916 25.6369 26.8253 29.0638C26.9329 29.5632 27.0619 30.0602 27.2169 30.5537V30.5832C27.2169 30.5927 27.2394 30.6247 27.2465 30.6471C29.1968 36.9102 34.1037 41.8127 40.3685 43.7573C40.3863 43.7573 40.3981 43.7762 40.417 43.7821C40.436 43.7881 40.4431 43.7821 40.4573 43.7821C40.9472 43.9312 41.4406 44.0638 41.9364 44.1703C42.9533 44.3938 43.9909 44.5104 45.032 44.5182C46.7448 44.6423 48.4387 44.0958 49.7559 42.994C49.905 42.8458 50.0117 42.6603 50.0647 42.4568L51.9581 35.2515C52.3888 35.1544 52.7836 34.9383 53.0976 34.6279L53.9342 33.7901C56.5113 31.2116 57.1028 27.2527 55.3921 24.0335L68.7638 11.8747C70.8716 9.95906 71.5682 6.93589 70.5113 4.29097C69.4544 1.64605 66.8661 -0.0644883 64.0186 -8.20076e-06C62.1512 0.0378627 60.3825 0.845987 59.1314 2.23294L46.9668 15.6082C43.7476 13.8935 39.7862 14.4828 37.2055 17.0601ZM47.8685 41.5042C47.0117 42.1089 45.09 42.4284 42.4322 41.8592C42.3577 41.8427 42.263 41.8178 42.1826 41.7989L43.3659 37.4513C43.4769 37.0433 43.3618 36.6072 43.0639 36.3071C42.7661 36.007 42.3308 35.8886 41.922 35.9964C41.5132 36.1043 41.193 36.4221 41.0821 36.8301L39.92 41.0901C38.0212 40.3456 36.2659 39.2774 34.7323 37.9329L38.7024 33.9628C39.1508 33.4985 39.1444 32.7605 38.688 32.304C38.2315 31.8476 37.4935 31.8412 37.0291 32.2896L33.0591 36.2597C31.7146 34.7261 30.6463 32.9708 29.9019 31.072L34.1678 29.9099C34.7985 29.7384 35.1707 29.088 34.9991 28.4574C34.8276 27.8267 34.1772 27.4545 33.5466 27.6261L29.199 28.8094C29.1801 28.729 29.1552 28.6343 29.1387 28.5597C28.5695 25.9008 28.8902 23.9802 29.4937 23.1235L36.428 21.3L49.7003 34.5723L47.8685 41.5042ZM52.2657 32.1216L51.4303 32.9594L38.0409 19.5711L38.8787 18.7345C41.1893 16.424 44.9354 16.424 47.246 18.7345L52.2657 23.7542C54.5763 26.0648 54.5763 29.811 52.2657 32.1216ZM60.8757 3.82571C61.9818 2.61161 63.6659 2.10394 65.2588 2.5044C66.8517 2.90487 68.0954 4.14861 68.4959 5.74149C68.8963 7.33437 68.3887 9.01843 67.1746 10.1246L53.9792 22.12L48.8802 17.0211L60.8757 3.82571Z" fill="#E56033"/>
<path d="M53.25 45.5584C53.25 47.8457 55.1043 49.7 57.3917 49.7C59.679 49.7 61.5333 47.8457 61.5333 45.5584C61.5333 43.271 59.679 41.4167 57.3917 41.4167C55.1043 41.4167 53.25 43.271 53.25 45.5584ZM59.1667 45.5584C59.1667 46.5387 58.372 47.3334 57.3917 47.3334C56.4114 47.3334 55.6167 46.5387 55.6167 45.5584C55.6167 44.578 56.4114 43.7834 57.3917 43.7834C58.372 43.7834 59.1667 44.578 59.1667 45.5584Z" fill="#E56033"/>
<path d="M37.275 9.46668C39.5623 9.46668 41.4166 7.6124 41.4166 5.32502C41.4166 3.03764 39.5623 1.18335 37.275 1.18335C34.9876 1.18335 33.1333 3.03764 33.1333 5.32502C33.1333 7.6124 34.9876 9.46668 37.275 9.46668ZM37.275 3.55002C38.2553 3.55002 39.05 4.34471 39.05 5.32502C39.05 6.30532 38.2553 7.10002 37.275 7.10002C36.2947 7.10002 35.5 6.30532 35.5 5.32502C35.5 4.34471 36.2947 3.55002 37.275 3.55002Z" fill="#E56033"/>
<path d="M63.9001 28.4C63.2466 28.4 62.7168 28.9298 62.7168 29.5834V31.95C62.7168 32.6036 63.2466 33.1334 63.9001 33.1334C64.5537 33.1334 65.0835 32.6036 65.0835 31.95V29.5834C65.0835 28.9298 64.5537 28.4 63.9001 28.4Z" fill="#E56033"/>
<path d="M62.7168 36.6833V39.05C62.7168 39.7035 63.2466 40.2333 63.9001 40.2333C64.5537 40.2333 65.0835 39.7035 65.0835 39.05V36.6833C65.0835 36.0298 64.5537 35.5 63.9001 35.5C63.2466 35.5 62.7168 36.0298 62.7168 36.6833Z" fill="#E56033"/>
<path d="M68.6335 33.1333H66.2668C65.6133 33.1333 65.0835 33.6631 65.0835 34.3166C65.0835 34.9702 65.6133 35.5 66.2668 35.5H68.6335C69.287 35.5 69.8168 34.9702 69.8168 34.3166C69.8168 33.6631 69.287 33.1333 68.6335 33.1333Z" fill="#E56033"/>
<path d="M62.7167 34.3166C62.7167 33.6631 62.1869 33.1333 61.5334 33.1333H59.1667C58.5132 33.1333 57.9834 33.6631 57.9834 34.3166C57.9834 34.9702 58.5132 35.5 59.1667 35.5H61.5334C62.1869 35.5 62.7167 34.9702 62.7167 34.3166Z" fill="#E56033"/>
<path d="M15.7302 10.3033C16.1945 10.7517 16.9326 10.7453 17.389 10.2889C17.8455 9.83243 17.8519 9.09438 17.4035 8.63006L15.6285 6.85506C15.1641 6.40661 14.4261 6.41303 13.9696 6.86948C13.5132 7.32593 13.5068 8.06398 13.9552 8.5283L15.7302 10.3033Z" fill="#E56033"/>
<path d="M10.405 4.97829C10.8693 5.42674 11.6074 5.42032 12.0638 4.96387C12.5203 4.50742 12.5267 3.76937 12.0783 3.30505L10.3033 1.53005C9.83895 1.0816 9.10089 1.08801 8.64444 1.54447C8.18799 2.00092 8.18158 2.73897 8.63003 3.20329L10.405 4.97829Z" fill="#E56033"/>
<path d="M9.46681 10.65C9.78062 10.6499 10.0816 10.5252 10.3034 10.3033L12.0784 8.52829C12.386 8.23119 12.5094 7.79122 12.4011 7.37749C12.2928 6.96377 11.9697 6.64066 11.556 6.53237C11.1423 6.42408 10.7023 6.54745 10.4052 6.85506L8.63019 8.63006C8.29187 8.96849 8.19067 9.47737 8.37379 9.91949C8.5569 10.3616 8.98827 10.6499 9.46681 10.65Z" fill="#E56033"/>
<path d="M14.792 5.325C15.1058 5.32494 15.4068 5.20022 15.6286 4.97829L17.4036 3.20329C17.8521 2.73897 17.8457 2.00092 17.3892 1.54447C16.9328 1.08801 16.1947 1.0816 15.7304 1.53005L13.9554 3.30505C13.6171 3.64348 13.5159 4.15236 13.699 4.59448C13.8821 5.03659 14.3135 5.3249 14.792 5.325Z" fill="#E56033"/>
</g>
<defs>
<clipPath id="clip0_136_1572">
<rect width="71" height="71" fill="white"/>
</clipPath>
</defs>
</svg>
